<svg width="28" height="28" viewBox="0 0 28 28" fill="none" xmlns="http://www.w3.org/2000/svg">
<path d="M20.8704 27.0617H7.07907C3.65181 27.0617 0.855164 24.265 0.855164 20.8378V6.22391C0.855164 2.79665 3.65181 0 7.07907 0H20.8704C24.2976 0 27.0943 2.79665 27.0943 6.22391V20.8378C27.0943 24.265 24.2976 27.0617 20.8704 27.0617Z" fill="url(#paint0_linear_2182_1345)"/>
<path d="M1.10192 21.1668V6.55293C1.10192 3.12566 3.89857 0.329016 7.32583 0.329016H21.1171C23.1187 0.329016 24.9283 1.28865 26.0798 2.79665C24.9557 1.12414 23.0638 0 20.8978 0H7.07907C3.65181 0 0.855164 2.79665 0.855164 6.22391V20.8378C0.855164 22.2361 1.32127 23.5522 2.11639 24.594C1.48578 23.607 1.10192 22.428 1.10192 21.1668Z" fill="#60E342"/>
<path d="M7.07909 25.0876C4.74855 25.0876 2.82928 23.1957 2.82928 20.8378V6.22393C2.82928 3.89339 4.72113 1.97412 7.07909 1.97412H20.8704C23.2009 1.97412 25.1202 3.86597 25.1202 6.22393V20.8378C25.1202 23.1683 23.2284 25.0876 20.8704 25.0876H7.07909Z" fill="#67B043"/>
<path d="M7.07907 24.8134C4.88562 24.8134 3.13086 23.0313 3.13086 20.8652V6.22396C3.13086 4.03052 4.91303 2.27576 7.07907 2.27576H20.8704C23.0638 2.27576 24.8186 4.05793 24.8186 6.22396V20.8378C24.8186 23.0313 23.0364 24.786 20.8704 24.786H7.07907V24.8134Z" fill="url(#paint1_linear_2182_1345)"/>
<path d="M7.38067 22.5377C6.61296 22.5377 5.95493 21.9071 5.95493 21.112V6.49813C5.95493 5.73042 6.58555 5.07239 7.38067 5.07239H21.172C21.9397 5.07239 22.5977 5.703 22.5977 6.49813V21.112C22.5977 21.8797 21.9671 22.5377 21.172 22.5377H7.38067Z" fill="#78EB85"/>
<path d="M7.07906 22.2636C6.31135 22.2636 5.65332 21.6329 5.65332 20.8378V6.22396C5.65332 5.45625 6.28394 4.79822 7.07906 4.79822H20.8704C21.6381 4.79822 22.2961 5.42883 22.2961 6.22396V20.8378C22.2961 21.6055 21.6655 22.2636 20.8704 22.2636H7.07906Z" fill="url(#paint2_linear_2182_1345)"/>
<path d="M3.56955 21.3862V6.55298C3.56955 4.49663 5.24205 2.82412 7.29841 2.82412H21.3091C22.4606 2.82412 23.4751 3.31765 24.2154 4.08535C23.5025 2.98863 22.2961 2.27576 20.8978 2.27576H7.07907C4.88562 2.27576 3.13086 4.05793 3.13086 6.22396V20.8378C3.13086 21.8797 3.54213 22.8119 4.20016 23.5248C3.78889 22.9216 3.56955 22.1813 3.56955 21.3862Z" fill="#78EB85"/>
<defs>
<linearGradient id="paint0_linear_2182_1345" x1="12.5181" y1="-0.0595521" x2="15.4214" y2="26.8994" gradientUnits="userSpaceOnUse">
<stop stop-color="#89DC35"/>
<stop offset="1" stop-color="#44C200"/>
</linearGradient>
<linearGradient id="paint1_linear_2182_1345" x1="12.8478" y1="2.0503" x2="15.0598" y2="24.4469" gradientUnits="userSpaceOnUse">
<stop stop-color="#229100"/>
<stop offset="1" stop-color="#23A300"/>
</linearGradient>
<linearGradient id="paint2_linear_2182_1345" x1="13.0902" y1="4.50476" x2="14.8294" y2="22.1139" gradientUnits="userSpaceOnUse">
<stop stop-color="#8FE637"/>
<stop offset="1" stop-color="#44C200"/>
</linearGradient>
</defs>
</svg>
