<svg width="21" height="21" viewBox="0 0 21 21" fill="none" xmlns="http://www.w3.org/2000/svg">
<path d="M20.9975 10.5C20.9975 16.2982 16.2982 21 10.4975 21C4.69684 21 0 16.2982 0 10.5C0 8.56645 0.523256 6.75498 1.43522 5.19768C3.25664 2.08804 6.63538 0 10.5 0C14.4967 0 17.9701 2.23256 19.7442 5.51661C20.5415 7.00166 20.9975 8.69601 20.9975 10.5Z" fill="#FFDF01"/>
<path d="M20.9975 10.5001C20.9975 16.2983 16.2982 21.0001 10.4975 21.0001C4.69684 21.0001 0 16.2983 0 10.5001C0 8.56652 0.523256 6.75506 1.43522 5.19775C3.98173 8.0333 6.22674 9.27915 6.22674 9.27915C6.22674 9.27915 11.4892 10.3755 14.7708 9.10473C16.7342 8.34476 18.5781 6.70772 19.7417 5.51669C20.5415 7.00174 20.9975 8.69609 20.9975 10.5001Z" fill="#F8CF03"/>
<path d="M17.696 2.85559C19.4651 4.73433 20.5515 7.26589 20.5515 10.0516C20.5515 15.8498 15.8522 20.5516 10.0515 20.5516C7.2658 20.5516 4.73424 19.4677 2.8555 17.6961C4.76912 19.7293 7.48756 20.9976 10.5 20.9976C16.2982 20.9976 21 16.2983 21 10.4976C20.9975 7.48765 19.7268 4.7717 17.696 2.85559Z" fill="#FFEA71"/>
<path d="M18.6529 10.5C18.6529 15.0025 15.0025 18.6529 10.5 18.6529C5.99755 18.6529 2.34473 15.0025 2.34473 10.5C2.34473 9.22429 2.63625 8.01831 3.15951 6.9419C4.48011 4.22097 7.27081 2.34473 10.4976 2.34473C13.814 2.34473 16.667 4.32562 17.9427 7.16615C18.3987 8.18526 18.6529 9.314 18.6529 10.5Z" fill="#E6A000"/>
<path d="M18.6529 10.5C18.6529 15.0025 15.0025 18.6529 10.5 18.6529C5.99755 18.6529 2.34473 15.0025 2.34473 10.5C2.34473 9.22429 2.63625 8.01831 3.15951 6.94189L3.49589 7.27329L17.5789 7.45518L17.9402 7.16864C18.3987 8.18525 18.6529 9.31399 18.6529 10.5Z" fill="#DB8D03"/>
<path d="M18.2043 10.5C18.2043 14.7558 14.7533 18.2068 10.4975 18.2068C6.24169 18.2068 2.7907 14.7558 2.7907 10.5C2.7907 9.34886 3.04236 8.25501 3.49584 7.27328C4.71677 4.6271 7.39285 2.79321 10.4975 2.79321C13.6719 2.79321 16.4003 4.71431 17.5789 7.45517C17.9826 8.38956 18.2043 9.41863 18.2043 10.5Z" fill="#F9C206"/>
<path d="M5.09798 8.53149C5.10794 8.53897 5.11791 8.54644 5.12788 8.55392C5.12289 8.56389 5.11791 8.57385 5.11293 8.58382L5.09798 8.53149Z" fill="#F8CF03"/>
<path d="M18.2043 10.4999C18.2043 14.7558 14.7533 18.2067 10.4975 18.2067C6.24169 18.2067 2.7907 14.7558 2.7907 10.4999C2.7907 9.34877 3.04236 8.25492 3.49584 7.27319C3.96428 7.71173 4.90864 8.51655 6.22674 9.27901C8.11794 10.3729 13.044 10.941 17.5789 7.45509C17.9826 8.38947 18.2043 9.41854 18.2043 10.4999Z" fill="#F4B503"/>
<path d="M10.8887 6.29401L11.7458 7.97092C11.9402 8.34966 12.3015 8.61378 12.7226 8.68106L14.5839 8.97757C14.9377 9.03488 15.0772 9.46594 14.8256 9.72009L13.495 11.0531C13.1935 11.3546 13.0565 11.7807 13.1213 12.2018L13.4153 14.0631C13.4701 14.4169 13.1013 14.6835 12.7824 14.5216L11.103 13.6669C10.7243 13.4751 10.2757 13.4751 9.89452 13.6669L8.21512 14.5216C7.89618 14.6835 7.52741 14.4169 7.58223 14.0631L7.87625 12.2018C7.94352 11.7807 7.80399 11.3546 7.50249 11.0531L6.17193 9.72009C5.91777 9.46594 6.0598 9.03238 6.41362 8.97757L8.27492 8.68106C8.69601 8.61378 9.05731 8.34966 9.25166 7.97092L10.1088 6.29401C10.2708 5.97508 10.7267 5.97508 10.8887 6.29401Z" fill="#E6A000"/>
<path d="M14.6561 9.48342L13.3779 10.7642C13.0888 11.0532 12.9568 11.4643 13.0191 11.868L13.3006 13.657C13.353 13.9959 12.9991 14.255 12.6927 14.098L11.078 13.2783C10.7143 13.0939 10.2832 13.0939 9.91692 13.2783L8.3023 14.098C7.99582 14.255 7.642 13.9959 7.69432 13.657L7.97589 11.868C8.04067 11.4643 7.90612 11.0532 7.61708 10.7642L6.33884 9.48342C6.27904 9.42362 6.24167 9.35136 6.22422 9.2791C6.17439 9.05734 6.31393 8.81067 6.57057 8.7708L8.35961 8.48675C8.76326 8.42196 9.1121 8.16781 9.29898 7.80402L10.1212 6.19189C10.2782 5.88542 10.7143 5.88542 10.8712 6.19189L11.6935 7.80402C11.8804 8.16781 12.2292 8.42196 12.6329 8.48675L14.4219 8.7708C14.6113 8.8007 14.7383 8.94273 14.7682 9.10718C14.7957 9.23425 14.7633 9.37628 14.6561 9.48342Z" fill="#FFDF01"/>
<path d="M14.6562 9.48335L13.3779 10.7641C13.0889 11.0531 12.9568 11.4642 13.0191 11.8679L13.3007 13.6569C13.353 13.9958 12.9992 14.2549 12.6927 14.098L11.0781 13.2782C10.7143 13.0938 10.2832 13.0938 9.91695 13.2782L8.30233 14.098C7.99585 14.2549 7.64203 13.9958 7.69436 13.6569L7.97592 11.8679C8.0407 11.4642 7.90615 11.0531 7.61712 10.7641L6.33888 9.48335C6.27908 9.42355 6.2417 9.35129 6.22426 9.27903C7.55981 10.0141 9.0922 10.3928 10.6171 10.343C12.0772 10.2956 13.5199 9.8596 14.7683 9.10461C14.7957 9.23418 14.7633 9.37621 14.6562 9.48335Z" fill="#F8CF03"/>
<path d="M14.4693 8.78076C14.5066 8.9178 14.4792 9.07478 14.3621 9.19189L13.0839 10.4726C12.7948 10.7617 12.6603 11.1728 12.7251 11.5764L13.0066 13.3655C13.059 13.7043 12.7051 13.9635 12.3987 13.8065L10.784 12.9867C10.4203 12.8024 9.9892 12.8024 9.62292 12.9867L8.0083 13.8065C7.90614 13.8588 7.799 13.8638 7.70432 13.8364C7.77159 14.0781 8.05315 14.2251 8.30232 14.098L9.91694 13.2783C10.2807 13.0939 10.7118 13.0939 11.0781 13.2783L12.6927 14.098C12.9992 14.255 13.353 13.9959 13.3007 13.657L13.0191 11.868C12.9543 11.4643 13.0889 11.0532 13.3779 10.7641L14.6561 9.48342C14.8879 9.25169 14.7757 8.86299 14.4693 8.78076Z" fill="#FFEA71"/>
<path d="M15.7201 4.8313C16.9859 6.20422 17.7584 8.03811 17.7584 10.0539C17.7584 14.3097 14.3074 17.7607 10.0515 17.7607C8.03825 17.7607 6.20436 16.9883 4.82895 15.7225C6.23676 17.2499 8.25503 18.2067 10.4976 18.2067C14.7534 18.2067 18.2044 14.7557 18.2044 10.4999C18.2044 8.25738 17.2476 6.23911 15.7201 4.8313Z" fill="#FFD252"/>
</svg>
