<svg width="257" height="165" viewBox="0 0 257 165" fill="none" xmlns="http://www.w3.org/2000/svg">
<path d="M120.703 97.6765C102.766 97.6765 87.0974 101.897 78.6037 108.122H71.851V118.884C71.851 122.577 74.0139 126.059 77.8651 129.066C86.1478 135.608 102.238 140.04 120.703 140.04C132.468 140.04 143.23 138.246 151.618 135.239C153.359 134.606 154.942 133.973 156.471 133.234C158.16 132.443 159.69 131.599 161.061 130.755C166.39 127.378 169.502 123.263 169.502 118.832V108.175H162.749C162.222 107.753 161.642 107.384 161.009 107.014C159.637 106.118 158.107 105.273 156.419 104.535C154.889 103.849 153.253 103.163 151.565 102.53C143.177 99.523 132.415 97.6765 120.703 97.6765Z" fill="url(#paint0_linear_2113_1342)"/>
<path opacity="0.15" d="M77.8651 108.175H71.851V118.937C71.851 122.63 74.0139 126.112 77.8651 129.119V108.175Z" fill="#632E4C"/>
<path opacity="0.4" d="M161.061 106.962V130.807C166.39 127.431 169.502 123.316 169.502 118.884V108.175H162.749C162.222 107.753 161.694 107.384 161.061 106.962Z" fill="white"/>
<path opacity="0.4" d="M156.471 94.8805H151.618V135.292C153.359 134.658 154.942 134.025 156.471 133.287V94.8805Z" fill="white"/>
<path d="M120.703 128.486C147.683 128.486 169.555 119.392 169.555 108.175C169.555 96.9575 147.683 87.8639 120.703 87.8639C93.7227 87.8639 71.851 96.9575 71.851 108.175C71.851 119.392 93.7227 128.486 120.703 128.486Z" fill="url(#paint1_linear_2113_1342)"/>
<path d="M120.703 127.536C146.43 127.536 167.287 118.868 167.287 108.175C167.287 97.482 146.43 88.8136 120.703 88.8136C94.9757 88.8136 74.1195 97.482 74.1195 108.175C74.1195 118.868 94.9757 127.536 120.703 127.536Z" fill="url(#paint2_linear_2113_1342)"/>
<path d="M120.703 124.793C142.73 124.793 160.586 117.353 160.586 108.175C160.586 98.9971 142.73 91.5569 120.703 91.5569C98.6759 91.5569 80.8195 98.9971 80.8195 108.175C80.8195 117.353 98.6759 124.793 120.703 124.793Z" fill="url(#paint3_linear_2113_1342)"/>
<path d="M120.703 124.424C140.312 124.424 156.208 117.81 156.208 109.652C156.208 101.494 140.312 94.8805 120.703 94.8805C101.094 94.8805 85.1982 101.494 85.1982 109.652C85.1982 117.81 101.094 124.424 120.703 124.424Z" fill="url(#paint4_linear_2113_1342)"/>
<path d="M88.7856 109.652C88.7856 116.985 103.083 122.894 120.65 122.894C138.218 122.894 152.515 116.933 152.515 109.652C152.515 102.319 138.218 96.4104 120.65 96.4104C103.083 96.4104 88.7856 102.319 88.7856 109.652ZM151.301 109.652C151.301 116.669 137.532 122.419 120.65 122.419C103.768 122.419 89.999 116.721 89.999 109.652C89.999 102.636 103.768 96.8852 120.65 96.8852C137.585 96.938 151.301 102.636 151.301 109.652Z" fill="url(#paint5_linear_2113_1342)"/>
<path d="M120.703 83.2213C102.766 83.2213 87.0974 87.4418 78.6037 93.667H71.851V104.429C71.851 108.122 74.0139 111.604 77.8651 114.611C86.1478 121.153 102.238 125.584 120.703 125.584C132.468 125.584 143.23 123.791 151.618 120.784C153.359 120.151 154.942 119.517 156.471 118.779C158.16 117.988 159.69 117.143 161.061 116.299C166.39 112.923 169.502 108.808 169.502 104.377V93.6143H162.749C162.222 93.1922 161.642 92.8229 161.009 92.4536C159.637 91.5568 158.107 90.7127 156.419 89.9741C154.889 89.2883 153.253 88.6024 151.565 87.9693C143.177 85.0678 132.415 83.2213 120.703 83.2213Z" fill="url(#paint6_linear_2113_1342)"/>
<path opacity="0.15" d="M77.8651 93.7197H71.851V104.482C71.851 108.175 74.0139 111.657 77.8651 114.664V93.7197Z" fill="#632E4C"/>
<path opacity="0.4" d="M161.061 92.5063V116.352C166.39 112.976 169.502 108.861 169.502 104.429V93.667H162.749C162.222 93.2977 161.694 92.9284 161.061 92.5063Z" fill="white"/>
<path opacity="0.4" d="M156.471 80.4253H151.618V120.836C153.359 120.203 154.942 119.57 156.471 118.832V80.4253Z" fill="white"/>
<path d="M120.703 114.031C147.683 114.031 169.555 104.937 169.555 93.7197C169.555 82.5023 147.683 73.4087 120.703 73.4087C93.7227 73.4087 71.851 82.5023 71.851 93.7197C71.851 104.937 93.7227 114.031 120.703 114.031Z" fill="url(#paint7_linear_2113_1342)"/>
<path d="M120.703 113.081C146.43 113.081 167.287 104.413 167.287 93.7197C167.287 83.0267 146.43 74.3583 120.703 74.3583C94.9757 74.3583 74.1195 83.0267 74.1195 93.7197C74.1195 104.413 94.9757 113.081 120.703 113.081Z" fill="url(#paint8_linear_2113_1342)"/>
<path d="M120.703 110.338C142.73 110.338 160.586 102.898 160.586 93.7197C160.586 84.5418 142.73 77.1016 120.703 77.1016C98.6759 77.1016 80.8195 84.5418 80.8195 93.7197C80.8195 102.898 98.6759 110.338 120.703 110.338Z" fill="url(#paint9_linear_2113_1342)"/>
<path d="M120.703 109.969C140.312 109.969 156.208 103.355 156.208 95.197C156.208 87.0388 140.312 80.4253 120.703 80.4253C101.094 80.4253 85.1982 87.0388 85.1982 95.197C85.1982 103.355 101.094 109.969 120.703 109.969Z" fill="url(#paint10_linear_2113_1342)"/>
<path d="M88.7856 95.1969C88.7856 102.53 103.083 108.439 120.65 108.439C138.218 108.439 152.515 102.477 152.515 95.1969C152.515 87.8639 138.218 81.9552 120.65 81.9552C103.083 81.9552 88.7856 87.9166 88.7856 95.1969ZM151.301 95.1969C151.301 102.213 137.532 107.964 120.65 107.964C103.768 107.964 89.999 102.266 89.999 95.1969C89.999 88.1804 103.768 82.43 120.65 82.43C137.585 82.4827 151.301 88.1804 151.301 95.1969Z" fill="url(#paint11_linear_2113_1342)"/>
<path d="M120.703 68.7662C102.766 68.7662 87.0974 72.9867 78.6037 79.2119H71.851V89.9741C71.851 93.667 74.0139 97.1489 77.8651 100.156C86.1478 106.698 102.238 111.129 120.703 111.129C132.468 111.129 143.23 109.336 151.618 106.328C153.359 105.695 154.942 105.062 156.471 104.324C158.16 103.532 159.69 102.688 161.061 101.844C166.39 98.4678 169.502 94.3529 169.502 89.9214V79.1591H162.749C162.222 78.7371 161.642 78.3678 161.009 77.9985C159.637 77.1017 158.107 76.2575 156.419 75.519C154.889 74.8331 153.253 74.1473 151.565 73.5143C143.177 70.6127 132.415 68.7662 120.703 68.7662Z" fill="url(#paint12_linear_2113_1342)"/>
<path opacity="0.15" d="M77.8651 79.2646H71.851V90.0269C71.851 93.7198 74.0139 97.2017 77.8651 100.209V79.2646Z" fill="#632E4C"/>
<path opacity="0.4" d="M161.061 78.0513V101.897C166.39 98.5206 169.502 94.4056 169.502 89.9741V79.2119H162.749C162.222 78.8426 161.694 78.4733 161.061 78.0513Z" fill="white"/>
<path opacity="0.4" d="M156.471 65.9702H151.618V106.381C153.359 105.748 154.942 105.115 156.471 104.377V65.9702Z" fill="white"/>
<path d="M120.703 99.5757C147.683 99.5757 169.555 90.4821 169.555 79.2647C169.555 68.0472 147.683 58.9536 120.703 58.9536C93.7227 58.9536 71.851 68.0472 71.851 79.2647C71.851 90.4821 93.7227 99.5757 120.703 99.5757Z" fill="url(#paint13_linear_2113_1342)"/>
<path d="M120.703 98.6261C146.43 98.6261 167.287 89.9576 167.287 79.2646C167.287 68.5716 146.43 59.9032 120.703 59.9032C94.9757 59.9032 74.1195 68.5716 74.1195 79.2646C74.1195 89.9576 94.9757 98.6261 120.703 98.6261Z" fill="url(#paint14_linear_2113_1342)"/>
<path d="M120.703 95.8827C142.73 95.8827 160.586 88.4426 160.586 79.2646C160.586 70.0867 142.73 62.6465 120.703 62.6465C98.6759 62.6465 80.8195 70.0867 80.8195 79.2646C80.8195 88.4426 98.6759 95.8827 120.703 95.8827Z" fill="url(#paint15_linear_2113_1342)"/>
<path d="M120.703 95.5136C140.312 95.5136 156.208 88.9 156.208 80.7419C156.208 72.5837 140.312 65.9702 120.703 65.9702C101.094 65.9702 85.1982 72.5837 85.1982 80.7419C85.1982 88.9 101.094 95.5136 120.703 95.5136Z" fill="url(#paint16_linear_2113_1342)"/>
<path d="M88.7856 80.7419C88.7856 88.0749 103.083 93.9836 120.65 93.9836C138.218 93.9836 152.515 88.0222 152.515 80.7419C152.515 73.4088 138.218 67.5001 120.65 67.5001C103.083 67.5001 88.7856 73.4615 88.7856 80.7419ZM151.301 80.7419C151.301 87.7584 137.532 93.5088 120.65 93.5088C103.768 93.5088 89.999 87.8112 89.999 80.7419C89.999 73.7253 103.768 67.9749 120.65 67.9749C137.585 68.0277 151.301 73.7253 151.301 80.7419Z" fill="url(#paint17_linear_2113_1342)"/>
<path d="M120.703 54.3112C102.766 54.3112 87.0974 58.5316 78.6037 64.7568H71.851V75.519C71.851 79.2119 74.0139 82.6939 77.8651 85.701C86.1478 92.2427 102.238 96.6742 120.703 96.6742C132.468 96.6742 143.23 94.8805 151.618 91.8734C153.359 91.2403 154.942 90.6073 156.471 89.8687C158.16 89.0773 159.69 88.2332 161.061 87.3891C166.39 84.0127 169.502 79.8978 169.502 75.4663V64.7041H162.749C162.222 64.282 161.642 63.9127 161.009 63.5434C159.637 62.6466 158.107 61.8025 156.419 61.0639C154.889 60.3781 153.253 59.6923 151.565 59.0592C143.177 56.1576 132.415 54.3112 120.703 54.3112Z" fill="url(#paint18_linear_2113_1342)"/>
<path opacity="0.15" d="M77.8651 64.8096H71.851V75.5717C71.851 79.2647 74.0139 82.7466 77.8651 85.7537V64.8096Z" fill="#632E4C"/>
<path opacity="0.4" d="M161.061 63.5962V87.4419C166.39 84.0655 169.502 79.9505 169.502 75.519V64.7568H162.749C162.222 64.3875 161.694 64.0182 161.061 63.5962Z" fill="white"/>
<path opacity="0.4" d="M156.471 51.515H151.618V91.9261C153.359 91.293 154.942 90.66 156.471 89.9214V51.515Z" fill="white"/>
<path d="M120.703 85.1206C147.683 85.1206 169.555 76.0271 169.555 64.8096C169.555 53.5921 147.683 44.4985 120.703 44.4985C93.7227 44.4985 71.851 53.5921 71.851 64.8096C71.851 76.0271 93.7227 85.1206 120.703 85.1206Z" fill="url(#paint19_linear_2113_1342)"/>
<path d="M120.703 84.171C146.43 84.171 167.287 75.5026 167.287 64.8096C167.287 54.1166 146.43 45.4481 120.703 45.4481C94.9757 45.4481 74.1195 54.1166 74.1195 64.8096C74.1195 75.5026 94.9757 84.171 120.703 84.171Z" fill="url(#paint20_linear_2113_1342)"/>
<path d="M120.703 81.4277C142.73 81.4277 160.586 73.9875 160.586 64.8095C160.586 55.6316 142.73 48.1914 120.703 48.1914C98.6759 48.1914 80.8195 55.6316 80.8195 64.8095C80.8195 73.9875 98.6759 81.4277 120.703 81.4277Z" fill="url(#paint21_linear_2113_1342)"/>
<path d="M120.703 81.0584C140.312 81.0584 156.208 74.4448 156.208 66.2867C156.208 58.1285 140.312 51.515 120.703 51.515C101.094 51.515 85.1982 58.1285 85.1982 66.2867C85.1982 74.4448 101.094 81.0584 120.703 81.0584Z" fill="url(#paint22_linear_2113_1342)"/>
<path d="M88.7856 66.2867C88.7856 73.6197 103.083 79.5284 120.65 79.5284C138.218 79.5284 152.515 73.567 152.515 66.2867C152.515 58.9536 138.218 53.0449 120.65 53.0449C103.083 53.0449 88.7856 59.0063 88.7856 66.2867ZM151.301 66.2867C151.301 73.3032 137.532 79.0536 120.65 79.0536C103.768 79.0536 89.999 73.356 89.999 66.2867C89.999 59.2701 103.768 53.5197 120.65 53.5197C137.585 53.5725 151.301 59.2701 151.301 66.2867Z" fill="url(#paint23_linear_2113_1342)"/>
<path d="M108.358 42.2827C90.4211 42.2827 74.7526 46.5032 66.2589 52.7284H59.5061V63.4906C59.5061 67.1836 61.6691 70.6654 65.5203 73.6725C73.803 80.2142 89.8935 84.6458 108.358 84.6458C120.123 84.6458 130.885 82.8521 139.273 79.845C141.014 79.2119 142.597 78.5788 144.127 77.8402C145.815 77.0489 147.345 76.2048 148.716 75.3607C154.045 71.9844 157.157 67.8693 157.157 63.4378V52.6757H150.405C149.877 52.2536 149.297 51.8843 148.664 51.515C147.292 50.6182 145.762 49.7741 144.074 49.0355C142.544 48.3497 140.909 47.6638 139.22 47.0308C130.885 44.0764 120.123 42.2827 108.358 42.2827Z" fill="url(#paint24_linear_2113_1342)"/>
<path opacity="0.15" d="M65.5203 52.7284H59.5061V63.4906C59.5061 67.1835 61.6691 70.6654 65.5203 73.6725V52.7284Z" fill="#632E4C"/>
<path opacity="0.4" d="M148.769 51.5677V75.4135C154.098 72.0371 157.21 67.9221 157.21 63.4906V52.7284H150.457C149.93 52.3591 149.35 51.937 148.769 51.5677Z" fill="white"/>
<path opacity="0.4" d="M144.179 39.4867H139.326V79.8977C141.067 79.2647 142.65 78.6316 144.179 77.893V39.4867Z" fill="white"/>
<path d="M108.358 73.0394C135.338 73.0394 157.21 63.9459 157.21 52.7284C157.21 41.5109 135.338 32.4174 108.358 32.4174C81.3779 32.4174 59.5061 41.5109 59.5061 52.7284C59.5061 63.9459 81.3779 73.0394 108.358 73.0394Z" fill="url(#paint25_linear_2113_1342)"/>
<path d="M108.358 72.0898C134.085 72.0898 154.942 63.4214 154.942 52.7284C154.942 42.0354 134.085 33.3669 108.358 33.3669C82.6307 33.3669 61.7745 42.0354 61.7745 52.7284C61.7745 63.4214 82.6307 72.0898 108.358 72.0898Z" fill="url(#paint26_linear_2113_1342)"/>
<path d="M108.358 69.3465C130.385 69.3465 148.242 61.9063 148.242 52.7284C148.242 43.5504 130.385 36.1102 108.358 36.1102C86.3311 36.1102 68.4746 43.5504 68.4746 52.7284C68.4746 61.9063 86.3311 69.3465 108.358 69.3465Z" fill="url(#paint27_linear_2113_1342)"/>
<path d="M108.358 69.03C127.967 69.03 143.863 62.4165 143.863 54.2584C143.863 46.1002 127.967 39.4867 108.358 39.4867C88.7494 39.4867 72.8534 46.1002 72.8534 54.2584C72.8534 62.4165 88.7494 69.03 108.358 69.03Z" fill="url(#paint28_linear_2113_1342)"/>
<path d="M76.4935 54.2584C76.4935 61.5915 90.7904 67.5001 108.358 67.5001C125.926 67.5001 140.223 61.5387 140.223 54.2584C140.223 46.9781 125.926 41.0166 108.358 41.0166C90.7904 40.9638 76.4935 46.9253 76.4935 54.2584ZM139.009 54.2584C139.009 61.2749 125.24 67.0253 108.358 67.0253C91.4762 67.0253 77.7069 61.3277 77.7069 54.2584C77.7069 47.1891 91.4762 41.4914 108.358 41.4914C125.24 41.4914 139.009 47.1891 139.009 54.2584Z" fill="url(#paint29_linear_2113_1342)"/>
<path d="M105.457 21.9717C87.5195 21.9717 71.851 26.1922 63.3573 32.4174H56.6045V43.1796C56.6045 46.8725 58.7675 50.3544 62.6187 53.3615C70.9014 59.9032 86.9919 64.3347 105.457 64.3347C117.221 64.3347 127.983 62.541 136.372 59.534C138.112 58.9009 139.695 58.2678 141.225 57.5292C142.913 56.7379 144.443 55.8938 145.815 55.0497C151.143 51.6733 154.256 47.5583 154.256 43.1268V32.3646H147.503C146.975 31.9426 146.395 31.5733 145.762 31.204C144.39 30.3071 142.86 29.4631 141.172 28.7245C139.642 28.0386 138.007 27.3528 136.319 26.7197C127.931 23.7654 117.168 21.9717 105.457 21.9717Z" fill="url(#paint30_linear_2113_1342)"/>
<path opacity="0.15" d="M62.6187 32.4174H56.6045V43.1796C56.6045 46.8725 58.7675 50.3544 62.6187 53.3614V32.4174Z" fill="#632E4C"/>
<path opacity="0.4" d="M145.815 31.2567V55.1024C151.143 51.7261 154.256 47.6111 154.256 43.1796V32.4174H147.503C146.975 31.9953 146.448 31.626 145.815 31.2567Z" fill="white"/>
<path opacity="0.4" d="M141.225 19.1228H136.372V59.5339C138.113 58.9008 139.695 58.2677 141.225 57.5291V19.1228Z" fill="white"/>
<path d="M105.457 52.7284C132.437 52.7284 154.309 43.6348 154.309 32.4174C154.309 21.1999 132.437 12.1063 105.457 12.1063C78.4763 12.1063 56.6045 21.1999 56.6045 32.4174C56.6045 43.6348 78.4763 52.7284 105.457 52.7284Z" fill="url(#paint31_linear_2113_1342)"/>
<path d="M105.457 51.7788C131.184 51.7788 152.04 43.1104 152.04 32.4174C152.04 21.7243 131.184 13.0559 105.457 13.0559C79.7292 13.0559 58.873 21.7243 58.873 32.4174C58.873 43.1104 79.7292 51.7788 105.457 51.7788Z" fill="url(#paint32_linear_2113_1342)"/>
<path d="M105.457 49.0354C127.484 49.0354 145.34 41.5953 145.34 32.4173C145.34 23.2394 127.484 15.7992 105.457 15.7992C83.4295 15.7992 65.573 23.2394 65.573 32.4173C65.573 41.5953 83.4295 49.0354 105.457 49.0354Z" fill="url(#paint33_linear_2113_1342)"/>
<path d="M105.457 48.7189C125.065 48.7189 140.961 42.1054 140.961 33.9472C140.961 25.7891 125.065 19.1755 105.457 19.1755C85.8478 19.1755 69.9518 25.7891 69.9518 33.9472C69.9518 42.1054 85.8478 48.7189 105.457 48.7189Z" fill="url(#paint34_linear_2113_1342)"/>
<path d="M73.5392 33.9473C73.5392 41.2804 87.836 47.1891 105.404 47.1891C122.972 47.1891 137.268 41.2277 137.268 33.9473C137.268 26.6143 122.972 20.7056 105.404 20.7056C87.836 20.7056 73.5392 26.6143 73.5392 33.9473ZM136.055 33.9473C136.055 40.9639 122.286 46.7142 105.404 46.7142C88.5219 46.7142 74.7526 41.0166 74.7526 33.9473C74.7526 26.9308 88.5219 21.1804 105.404 21.1804C122.286 21.1804 136.055 26.878 136.055 33.9473Z" fill="url(#paint35_linear_2113_1342)"/>
<path d="M122.127 10.3126C104.19 10.3126 88.5219 14.5331 80.0282 20.7583H73.2754V31.5205C73.2754 35.2134 75.4384 38.6953 79.2896 41.7024C87.5723 48.2442 103.663 52.6757 122.127 52.6757C133.892 52.6757 144.654 50.8819 153.042 47.8748C154.783 47.2418 156.366 46.6087 157.896 45.8702C159.584 45.0788 161.114 44.2347 162.486 43.3906C167.814 40.0142 170.927 35.8992 170.927 31.4677V20.7056H164.174C163.646 20.2835 163.066 19.9142 162.433 19.5449C161.061 18.6481 159.531 17.804 157.843 17.0654C156.313 16.3796 154.678 15.6937 152.99 15.0607C144.654 12.1063 133.892 10.3126 122.127 10.3126Z" fill="url(#paint36_linear_2113_1342)"/>
<path opacity="0.15" d="M79.2896 20.811H73.2754V31.5733C73.2754 35.2662 75.4384 38.748 79.2896 41.7551V20.811Z" fill="#632E4C"/>
<path opacity="0.4" d="M162.538 19.5977V43.4434C167.867 40.067 170.979 35.952 170.979 31.5205V20.7583H164.227C163.699 20.389 163.119 20.0197 162.538 19.5977Z" fill="white"/>
<path opacity="0.4" d="M157.949 7.51648H153.095V47.9276C154.836 47.2945 156.419 46.6614 157.949 45.9228V7.51648Z" fill="white"/>
<path d="M122.127 41.1221C149.108 41.1221 170.979 32.0285 170.979 20.811C170.979 9.59356 149.108 0.5 122.127 0.5C95.1472 0.5 73.2754 9.59356 73.2754 20.811C73.2754 32.0285 95.1472 41.1221 122.127 41.1221Z" fill="url(#paint37_linear_2113_1342)"/>
<path d="M122.127 40.1724C147.855 40.1724 168.711 31.5041 168.711 20.811C168.711 10.118 147.855 1.44958 122.127 1.44958C96.4 1.44958 75.5438 10.118 75.5438 20.811C75.5438 31.5041 96.4 40.1724 122.127 40.1724Z" fill="url(#paint38_linear_2113_1342)"/>
<path d="M122.127 37.4291C144.154 37.4291 162.011 29.9889 162.011 20.811C162.011 11.6331 144.154 4.19287 122.127 4.19287C100.1 4.19287 82.2439 11.6331 82.2439 20.811C82.2439 29.9889 100.1 37.4291 122.127 37.4291Z" fill="url(#paint39_linear_2113_1342)"/>
<path d="M122.127 37.0598C141.736 37.0598 157.632 30.4463 157.632 22.2881C157.632 14.13 141.736 7.51648 122.127 7.51648C102.519 7.51648 86.6227 14.13 86.6227 22.2881C86.6227 30.4463 102.519 37.0598 122.127 37.0598Z" fill="url(#paint40_linear_2113_1342)"/>
<path opacity="0.25" d="M144.39 14.9551C144.76 16.8015 144.601 19.4393 141.964 22.2882C134.525 30.3598 113.897 32.8394 110.943 33.1559C112.737 33.4725 114.847 33.7362 117.274 33.8944C124.765 34.422 131.043 33.6835 134.42 33.1559C134.103 32.1536 133.734 30.096 136.108 27.8803C140.223 23.9763 149.191 22.7102 150.774 22.4464C150.721 21.4968 150.352 20.1252 149.086 18.648C147.767 16.9598 145.868 15.7464 144.39 14.9551Z" fill="white"/>
<path opacity="0.4" d="M154.256 7.25281C154.203 7.41108 153.939 7.93862 152.884 8.36067C152.146 8.67721 151.301 8.78273 150.879 8.83549C152.304 9.36305 153.834 10.0489 155.258 10.8402C159.373 13.1615 161.114 15.4827 161.905 17.0654C161.905 16.9599 161.958 16.1686 163.541 15.5882C164.438 15.2717 165.44 15.219 165.915 15.1662C165.335 14.4276 164.596 13.6363 163.646 12.7922C160.85 10.3654 157.316 8.51895 154.256 7.25281Z" fill="white"/>
<path opacity="0.4" d="M105.457 38.537C105.826 38.4315 106.828 38.1149 107.303 37.5874C107.672 37.1653 107.567 36.7961 107.514 36.6378C109.308 36.9544 111.365 37.2709 113.739 37.4819C120.492 38.115 126.348 37.7984 130.146 37.4292C129.883 37.4819 128.142 37.8512 127.614 38.6425C127.298 39.1173 127.509 39.5394 127.667 39.6976C125.768 39.8031 123.71 39.8559 121.494 39.8032C114.9 39.8032 109.466 39.1701 105.457 38.537Z" fill="white"/>
<path d="M90.2627 22.2882C90.2627 29.6212 104.56 35.5299 122.127 35.5299C139.695 35.5299 153.992 29.5685 153.992 22.2882C153.992 14.9551 139.695 9.04639 122.127 9.04639C104.56 9.04639 90.2627 14.9551 90.2627 22.2882ZM152.779 22.2882C152.779 29.3047 139.009 35.0551 122.127 35.0551C105.245 35.0551 91.4761 29.3574 91.4761 22.2882C91.4761 15.2716 105.245 9.5212 122.127 9.5212C139.009 9.5212 152.779 15.2716 152.779 22.2882Z" fill="url(#paint41_linear_2113_1342)"/>
<path d="M151.196 121.575C133.259 121.575 117.59 125.795 109.097 132.02H102.344V142.783C102.344 146.476 104.507 149.958 108.358 152.965C116.641 159.506 132.731 163.938 151.196 163.938C162.96 163.938 173.723 162.144 182.111 159.137C183.852 158.504 185.435 157.871 186.964 157.132C188.653 156.341 190.183 155.497 191.554 154.653C196.883 151.276 199.995 147.161 199.995 142.73V131.968H193.242C192.715 131.546 192.135 131.176 191.501 130.807C190.13 129.91 188.6 129.066 186.912 128.328C185.382 127.642 183.746 126.956 182.058 126.323C173.67 123.369 162.908 121.575 151.196 121.575Z" fill="url(#paint42_linear_2113_1342)"/>
<path opacity="0.15" d="M108.358 132.021H102.344V142.783C102.344 146.476 104.507 149.958 108.358 152.965V132.021Z" fill="#632E4C"/>
<path d="M151.196 152.332C178.176 152.332 200.048 143.238 200.048 132.021C200.048 120.803 178.176 111.709 151.196 111.709C124.216 111.709 102.344 120.803 102.344 132.021C102.344 143.238 124.216 152.332 151.196 152.332Z" fill="url(#paint43_linear_2113_1342)"/>
<path d="M151.196 151.382C176.923 151.382 197.779 142.713 197.779 132.02C197.779 121.327 176.923 112.659 151.196 112.659C125.468 112.659 104.612 121.327 104.612 132.02C104.612 142.713 125.468 151.382 151.196 151.382Z" fill="url(#paint44_linear_2113_1342)"/>
<path d="M151.196 148.639C173.223 148.639 191.079 141.198 191.079 132.02C191.079 122.843 173.223 115.402 151.196 115.402C129.169 115.402 111.312 122.843 111.312 132.02C111.312 141.198 129.169 148.639 151.196 148.639Z" fill="url(#paint45_linear_2113_1342)"/>
<path d="M151.196 148.322C170.805 148.322 186.701 141.709 186.701 133.55C186.701 125.392 170.805 118.779 151.196 118.779C131.587 118.779 115.691 125.392 115.691 133.55C115.691 141.709 131.587 148.322 151.196 148.322Z" fill="url(#paint46_linear_2113_1342)"/>
<path d="M119.279 133.55C119.279 140.884 133.575 146.792 151.143 146.792C168.711 146.792 183.008 140.831 183.008 133.55C183.008 126.27 168.711 120.309 151.143 120.309C133.575 120.309 119.279 126.217 119.279 133.55ZM181.794 133.55C181.794 140.567 168.025 146.317 151.143 146.317C134.261 146.317 120.492 140.62 120.492 133.55C120.492 126.481 134.261 120.784 151.143 120.784C168.025 120.784 181.794 126.481 181.794 133.55Z" fill="url(#paint47_linear_2113_1342)"/>
<path d="M151.196 107.12C133.259 107.12 117.59 111.34 109.097 117.565H102.344V128.328C102.344 132.021 104.507 135.502 108.358 138.51C116.641 145.051 132.731 149.483 151.196 149.483C162.96 149.483 173.723 147.689 182.111 144.682C183.852 144.049 185.435 143.416 186.964 142.677C188.653 141.886 190.183 141.042 191.554 140.198C196.883 136.821 199.995 132.706 199.995 128.275V117.513H193.242C192.715 117.091 192.135 116.721 191.501 116.352C190.13 115.455 188.6 114.611 186.912 113.873C185.382 113.187 183.746 112.501 182.058 111.868C173.67 108.913 162.908 107.12 151.196 107.12Z" fill="url(#paint48_linear_2113_1342)"/>
<path opacity="0.15" d="M108.358 117.565H102.344V128.328C102.344 132.021 104.507 135.502 108.358 138.51V117.565Z" fill="#632E4C"/>
<path d="M151.196 137.876C178.176 137.876 200.048 128.783 200.048 117.565C200.048 106.348 178.176 97.2544 151.196 97.2544C124.216 97.2544 102.344 106.348 102.344 117.565C102.344 128.783 124.216 137.876 151.196 137.876Z" fill="url(#paint49_linear_2113_1342)"/>
<path d="M151.196 136.927C176.923 136.927 197.779 128.258 197.779 117.565C197.779 106.872 176.923 98.204 151.196 98.204C125.468 98.204 104.612 106.872 104.612 117.565C104.612 128.258 125.468 136.927 151.196 136.927Z" fill="url(#paint50_linear_2113_1342)"/>
<path d="M151.196 134.184C173.223 134.184 191.079 126.743 191.079 117.565C191.079 108.387 173.223 100.947 151.196 100.947C129.169 100.947 111.312 108.387 111.312 117.565C111.312 126.743 129.169 134.184 151.196 134.184Z" fill="url(#paint51_linear_2113_1342)"/>
<path d="M151.196 133.867C170.805 133.867 186.701 127.253 186.701 119.095C186.701 110.937 170.805 104.324 151.196 104.324C131.587 104.324 115.691 110.937 115.691 119.095C115.691 127.253 131.587 133.867 151.196 133.867Z" fill="url(#paint52_linear_2113_1342)"/>
<path d="M119.279 119.095C119.279 126.428 133.575 132.337 151.143 132.337C168.711 132.337 183.008 126.376 183.008 119.095C183.008 111.762 168.711 105.854 151.143 105.854C133.575 105.854 119.279 111.762 119.279 119.095ZM181.794 119.095C181.794 126.112 168.025 131.862 151.143 131.862C134.261 131.862 120.545 126.112 120.545 119.095C120.545 112.079 134.314 106.328 151.196 106.328C168.078 106.328 181.794 112.026 181.794 119.095Z" fill="url(#paint53_linear_2113_1342)"/>
<path d="M151.196 92.5591C133.259 92.5591 117.59 96.7795 109.097 103.005H102.344V113.767C102.344 117.46 104.507 120.942 108.358 123.949C116.641 130.491 132.731 134.922 151.196 134.922C162.96 134.922 173.723 133.128 182.111 130.121C183.852 129.488 185.435 128.855 186.964 128.117C188.653 127.325 190.183 126.481 191.554 125.637C196.883 122.261 199.995 118.146 199.995 113.714V102.952H193.242C192.715 102.53 192.135 102.161 191.501 101.791C190.13 100.895 188.6 100.05 186.912 99.3118C185.382 98.626 183.746 97.9402 182.058 97.3071C173.67 94.3528 162.908 92.5591 151.196 92.5591Z" fill="url(#paint54_linear_2113_1342)"/>
<path opacity="0.15" d="M108.358 103.005H102.344V113.767C102.344 117.46 104.507 120.942 108.358 123.949V103.005Z" fill="#632E4C"/>
<path d="M151.196 123.316C178.176 123.316 200.048 114.222 200.048 103.005C200.048 91.7873 178.176 82.6937 151.196 82.6937C124.216 82.6937 102.344 91.7873 102.344 103.005C102.344 114.222 124.216 123.316 151.196 123.316Z" fill="url(#paint55_linear_2113_1342)"/>
<path d="M151.196 122.366C176.923 122.366 197.779 113.698 197.779 103.005C197.779 92.3117 176.923 83.6433 151.196 83.6433C125.468 83.6433 104.612 92.3117 104.612 103.005C104.612 113.698 125.468 122.366 151.196 122.366Z" fill="url(#paint56_linear_2113_1342)"/>
<path d="M151.196 119.623C173.223 119.623 191.079 112.183 191.079 103.005C191.079 93.8268 173.223 86.3866 151.196 86.3866C129.169 86.3866 111.312 93.8268 111.312 103.005C111.312 112.183 129.169 119.623 151.196 119.623Z" fill="url(#paint57_linear_2113_1342)"/>
<path d="M151.196 119.254C170.805 119.254 186.701 112.64 186.701 104.482C186.701 96.3238 170.805 89.7103 151.196 89.7103C131.587 89.7103 115.691 96.3238 115.691 104.482C115.691 112.64 131.587 119.254 151.196 119.254Z" fill="url(#paint58_linear_2113_1342)"/>
<path opacity="0.4" d="M183.324 89.4465C183.271 89.6048 183.008 90.1323 181.953 90.5544C181.214 90.8709 180.37 90.9765 179.948 91.0292C181.372 91.5568 182.902 92.2426 184.327 93.034C188.441 95.3552 190.182 97.6764 190.974 99.2591C190.974 99.1536 191.027 98.3623 192.609 97.782C193.506 97.4655 194.508 97.4127 194.983 97.3599C194.403 96.6213 193.664 95.83 192.715 94.9859C189.919 92.5591 186.331 90.7654 183.324 89.4465Z" fill="white"/>
<path opacity="0.4" d="M134.472 120.784C134.841 120.678 135.844 120.362 136.319 119.834C136.688 119.412 136.582 119.043 136.53 118.884C138.323 119.201 140.381 119.517 142.755 119.728C149.508 120.362 155.364 120.045 159.162 119.676C158.898 119.728 157.157 120.098 156.63 120.889C156.313 121.364 156.524 121.786 156.682 121.944C154.783 122.05 152.726 122.103 150.51 122.05C143.968 121.997 138.482 121.364 134.472 120.784Z" fill="white"/>
<path d="M119.279 104.482C119.279 111.815 133.575 117.724 151.143 117.724C168.711 117.724 183.008 111.762 183.008 104.482C183.008 97.1489 168.711 91.2402 151.143 91.2402C133.575 91.2402 119.279 97.2016 119.279 104.482ZM181.794 104.482C181.794 111.499 168.025 117.249 151.143 117.249C134.261 117.249 120.545 111.551 120.545 104.482C120.545 97.4127 134.314 91.7151 151.196 91.7151C168.078 91.7151 181.794 97.4654 181.794 104.482Z" fill="url(#paint59_linear_2113_1342)"/>
<path opacity="0.3" d="M97.3848 120.836C97.3848 121.1 97.3848 121.364 97.3321 121.68C97.3321 122.155 97.2793 122.63 97.2266 123.105C97.1738 123.738 97.121 124.318 97.0683 124.951C97.0155 125.321 97.0155 125.637 96.9628 126.006C96.5407 129.594 95.6966 133.287 94.536 136.874C87.5722 134.975 81.8218 132.284 77.8651 129.172C74.0139 126.165 71.851 122.683 71.851 118.99V108.175C71.851 107.542 71.9037 106.962 72.062 106.381C71.9565 105.748 71.851 105.115 71.851 104.482V93.7198C71.851 93.0867 71.9037 92.5064 72.062 91.9261C71.9565 91.293 71.851 90.6599 71.851 90.0269V79.2646C71.851 78.9481 71.8509 78.6316 71.9037 78.3151C72.062 78.3678 72.1675 78.4205 72.3258 78.4733C72.9588 78.7371 73.5391 78.9481 74.1195 79.2646H74.1722C75.4384 79.8449 76.7045 80.5308 77.9179 81.2694C78.6037 81.6914 79.2368 82.1135 79.9226 82.5883C80.3447 82.9048 80.7667 83.2214 81.1887 83.5379C82.4549 84.4875 83.6155 85.5426 84.7234 86.6505C85.5147 87.4418 86.3061 88.2859 87.0447 89.1828C87.2557 89.4466 87.4667 89.6576 87.6777 89.9214C88.1525 90.5017 88.5746 91.082 89.0494 91.7151C89.2604 91.9789 89.4187 92.2426 89.6297 92.5064L89.6825 92.5592C89.8935 92.8757 90.1045 93.1923 90.3155 93.5615C90.3683 93.6143 90.3683 93.667 90.421 93.7198C90.4738 93.8253 90.5265 93.9308 90.6321 94.0363C90.6321 94.0363 90.6848 94.0891 90.6848 94.1419C91.0014 94.6167 91.2651 95.1442 91.5817 95.619C91.7927 95.9883 92.0037 96.3576 92.162 96.7269C92.7423 97.782 93.2699 98.8899 93.7447 100.05C93.7447 100.103 93.7974 100.156 93.7974 100.209C93.9557 100.525 94.0612 100.895 94.2195 101.264C94.2722 101.422 94.325 101.58 94.4305 101.791C94.4833 101.95 94.536 102.108 94.6415 102.319C94.747 102.583 94.7998 102.794 94.9053 103.058C94.9053 103.058 94.9053 103.058 94.9053 103.11C95.2218 104.007 95.4856 104.904 95.7494 105.854C95.7494 105.906 95.8022 105.959 95.8022 106.065C95.9077 106.328 95.9604 106.645 96.0132 106.909C96.1714 107.436 96.277 108.017 96.3825 108.544C96.5407 109.177 96.6462 109.863 96.7518 110.496C96.8045 110.865 96.8573 111.235 96.9628 111.604C97.2793 113.714 97.4903 115.877 97.5431 118.093C97.5431 118.357 97.5431 118.621 97.5431 118.884C97.3848 119.412 97.3848 120.098 97.3848 120.836Z" fill="#6D225A"/>
<path d="M10.0737 102.213C3.84847 119.57 6.69729 137.665 16.0879 149.852C19.2005 153.862 22.9989 157.238 27.4304 159.77L27.2721 160.245L33.0753 162.355C39.9863 164.835 47.1611 165.099 54.1249 163.516C69.1604 160.087 82.8241 147.953 89.1021 130.596C93.0588 119.57 93.3753 108.228 90.632 98.2567C90.0517 96.1993 89.3659 94.2473 88.5745 92.3481C87.6777 90.2379 86.6753 88.2331 85.4619 86.3866C80.9249 79.1063 74.3304 73.4087 66.1005 70.4544L60.2973 68.3441L60.1391 68.819C53.7556 67.7111 47.2666 68.2914 41.0942 70.4016C38.9839 71.1402 36.9265 71.9843 34.869 73.0394C33.0225 73.989 31.2288 75.0969 29.5406 76.3103C20.9942 82.2189 14.0304 91.1874 10.0737 102.213Z" fill="url(#paint60_linear_2113_1342)"/>
<path opacity="0.15" d="M54.0194 163.516L16.0352 149.852C19.1478 153.862 22.9462 157.238 27.3777 159.77L27.2194 160.245L33.0226 162.355C39.8809 164.835 47.1084 165.099 54.0194 163.516Z" fill="#632E4C"/>
<path opacity="0.4" d="M60.0337 68.8717C53.6502 67.7638 47.1612 68.3441 40.9888 70.4544L85.4093 86.3866C80.8723 79.1063 74.2778 73.4087 66.0478 70.4544L60.2447 68.3441L60.0337 68.8717Z" fill="white"/>
<path opacity="0.4" d="M29.4352 76.3103L90.5266 98.2567C89.9463 96.1993 89.2604 94.2473 88.4691 92.3481L34.7635 73.0394C32.9698 74.0418 31.1761 75.0969 29.4352 76.3103Z" fill="white"/>
<path d="M4.2178 100.156C-4.90898 125.532 5.37844 152.49 27.1666 160.298C48.9549 168.106 74.0139 153.914 83.1407 128.539C92.2675 103.163 81.9801 76.2047 60.1919 68.3969C38.4037 60.5362 13.3446 74.7276 4.2178 100.156Z" fill="url(#paint61_linear_2113_1342)"/>
<path d="M6.06426 100.789C-2.64048 125.004 7.17213 150.696 27.958 158.188C48.7438 165.679 72.6423 152.068 81.347 127.853C90.0517 103.638 80.2391 77.9457 59.4533 70.4543C38.6674 63.0157 14.769 76.574 6.06426 100.789Z" fill="url(#paint62_linear_2113_1342)"/>
<path d="M11.4454 102.741C4.00676 123.474 12.395 145.473 30.2265 151.909C48.058 158.293 68.5273 146.687 75.9659 125.953C83.4045 105.22 75.0163 83.2212 57.1848 76.785C39.406 70.3487 18.8839 82.0078 11.4454 102.741Z" fill="url(#paint63_linear_2113_1342)"/>
<path d="M15.9296 104.324C9.28236 122.788 16.7737 142.361 32.6005 148.058C48.4273 153.756 66.6808 143.416 73.3281 124.951C79.9753 106.487 72.484 86.9141 56.6572 81.2165C40.8304 75.5189 22.5769 85.9117 15.9296 104.324Z" fill="url(#paint64_linear_2113_1342)"/>
<path opacity="0.25" d="M37.8761 88.5497C41.569 89.4993 46.6336 91.4513 51.2761 95.9356C64.4124 108.544 62.3021 129.752 61.9328 132.706C63.1462 131.229 64.4123 129.436 65.573 127.273C69.1604 120.625 69.7935 114.189 69.899 110.602C67.8942 110.232 63.7793 109.124 60.2446 105.379C54.0722 98.7843 54.5998 89.4466 54.7053 87.8111C52.806 87.2308 50.1155 86.5977 46.7391 86.7033C42.9934 86.8088 39.9336 87.7584 37.8761 88.5497Z" fill="white"/>
<path opacity="0.4" d="M28.2745 74.6221C28.5911 74.8331 29.4879 75.4135 29.91 76.6796C30.2265 77.5765 30.1738 78.4733 30.121 78.8953C31.6509 77.9457 33.4974 76.9961 35.5549 76.2048C41.4635 73.9363 46.5809 73.9363 49.9045 74.3056C49.6407 74.2001 48.1635 73.6197 47.636 71.7733C47.3194 70.6654 47.5305 69.663 47.636 69.241C46.0005 69.241 44.1541 69.3993 42.2021 69.663C36.5572 70.5599 31.7564 72.6701 28.2745 74.6221Z" fill="white"/>
<path opacity="0.4" d="M72.5895 142.414C72.5368 141.991 72.273 140.884 71.3234 139.987C70.6376 139.354 69.899 139.195 69.5297 139.143C70.7431 137.665 72.0092 135.924 73.2753 133.867C76.7572 127.958 78.1816 122.208 78.762 118.41C78.762 118.726 78.8675 120.573 80.2391 121.628C81.0832 122.261 81.9273 122.313 82.3494 122.313C81.8746 124.16 81.2943 126.112 80.5029 128.222C78.1816 134.342 75.1218 139.09 72.5895 142.414Z" fill="white"/>
<path d="M33.8667 144.682C48.058 149.799 64.4651 140.461 70.4266 123.949C76.388 107.384 69.6352 89.763 55.4439 84.6984C41.2525 79.5811 24.8454 88.9189 18.884 105.432C12.9226 121.944 19.6753 139.565 33.8667 144.682ZM55.0218 85.8063C68.6856 90.7126 75.1218 107.647 69.4242 123.527C63.7265 139.406 47.9525 148.375 34.2887 143.469C20.6249 138.562 14.1887 121.628 19.8863 105.748C25.584 89.8685 41.358 80.9 55.0218 85.8063Z" fill="url(#paint65_linear_2113_1342)"/>
<path opacity="0.3" d="M199.837 130.227C199.942 130.807 200.048 131.44 200.048 132.021V142.783C200.048 147.214 196.935 151.329 191.607 154.706C190.235 155.602 188.705 156.447 187.017 157.185C185.487 157.871 183.905 158.557 182.164 159.19C179.895 159.981 177.468 160.72 174.936 161.3C174.567 157.66 174.25 153.914 174.039 150.01C174.039 149.641 173.986 149.325 173.986 148.955C173.934 148.322 173.934 147.742 173.881 147.109C173.881 146.634 173.828 146.212 173.828 145.737C173.828 145.473 173.828 145.21 173.828 144.946C173.828 144.26 173.775 143.627 173.775 142.941C173.775 142.677 173.775 142.466 173.775 142.202C173.723 140.039 173.723 137.876 173.775 135.661C173.775 135.291 173.775 134.975 173.775 134.606C173.775 133.92 173.775 133.287 173.828 132.601C173.828 132.179 173.828 131.757 173.881 131.335C173.881 131.071 173.881 130.807 173.881 130.543C173.881 130.28 173.881 130.069 173.881 129.805C173.881 129.383 173.934 128.908 173.934 128.486C173.934 128.222 173.934 127.958 173.986 127.695C174.039 126.85 174.092 125.954 174.145 125.109C174.145 124.846 174.197 124.635 174.197 124.371C174.197 124.265 174.197 124.213 174.197 124.107C174.25 123.527 174.25 122.947 174.303 122.366C174.356 121.891 174.356 121.469 174.408 120.995C174.461 120.625 174.461 120.256 174.514 119.887C174.567 119.465 174.567 119.043 174.619 118.621C174.672 117.882 174.778 117.196 174.831 116.458C174.883 116.141 174.883 115.877 174.936 115.561C174.936 115.508 174.936 115.455 174.936 115.35C174.989 114.98 174.989 114.664 175.042 114.295C175.094 113.978 175.094 113.609 175.147 113.292C175.2 113.028 175.2 112.712 175.253 112.448C175.305 112.184 175.305 111.92 175.358 111.709C175.622 111.815 175.833 111.921 176.097 112.026C176.413 112.132 176.677 112.29 176.994 112.395C177.31 112.554 177.679 112.659 177.996 112.817C178.523 113.028 179.051 113.292 179.526 113.503C179.948 113.661 180.37 113.872 180.792 114.031C180.845 114.084 180.897 114.084 180.95 114.136C182.48 114.822 184.01 115.455 185.593 116.141C185.804 116.246 186.015 116.299 186.226 116.405C186.542 116.563 186.859 116.669 187.123 116.827C188.442 117.407 189.76 117.987 191.132 118.568C193.137 119.412 195.089 120.309 197.094 121.153C197.727 121.417 198.36 121.68 198.993 121.997C199.362 122.155 199.731 122.313 200.153 122.472V128.328C199.995 128.961 199.942 129.594 199.837 130.227Z" fill="#6D225A"/>
<path d="M238.138 97.6766C248.9 112.659 252.487 129.858 248.847 142.73C247.95 145.948 246.579 148.85 244.785 151.435L245.576 152.543L239.14 157.133C234.339 160.562 228.536 162.039 222.417 161.722C209.069 161.089 193.928 152.173 183.166 137.191C176.308 127.642 172.351 117.249 171.349 107.595C171.138 105.643 171.032 103.691 171.085 101.792C171.138 99.7341 171.296 97.6766 171.665 95.7246C172.984 88.2333 176.466 81.8498 182.217 77.7348L188.653 73.145L189.444 74.2529C193.559 73.0395 197.991 72.8285 202.633 73.5144C204.585 73.8309 206.59 74.3057 208.542 74.9387C210.335 75.5191 212.129 76.2049 213.976 77.049C222.68 81.1112 231.332 88.1805 238.138 97.6766Z" fill="url(#paint66_linear_2113_1342)"/>
<path opacity="0.15" d="M222.417 161.722L248.9 142.73C248.003 145.948 246.631 148.85 244.838 151.435L245.629 152.543L239.193 157.133C234.339 160.562 228.536 162.039 222.417 161.722Z" fill="#632E4C"/>
<path d="M244.891 92.8757C260.612 114.769 260.928 141.517 245.576 152.543C230.224 163.569 205.007 154.758 189.286 132.865C173.564 110.971 173.248 84.2237 188.6 73.1977C203.952 62.119 229.169 70.9292 244.891 92.8757Z" fill="url(#paint67_linear_2113_1342)"/>
<path d="M243.624 93.7725C258.607 114.664 258.924 140.145 244.258 150.696C229.591 161.195 205.535 152.806 190.552 131.915C175.569 111.024 175.253 85.5426 189.919 74.9914C204.585 64.493 228.589 72.8812 243.624 93.7725Z" fill="url(#paint68_linear_2113_1342)"/>
<path d="M239.826 96.5159C252.699 114.4 252.91 136.241 240.354 145.262C227.798 154.284 207.223 147.056 194.351 129.172C181.478 111.288 181.267 89.4466 193.823 80.4253C206.379 71.4041 226.954 78.6316 239.826 96.5159Z" fill="url(#paint69_linear_2113_1342)"/>
<path d="M236.291 99.0482C247.739 114.98 247.95 134.395 236.766 142.414C225.582 150.433 207.276 143.996 195.828 128.064C184.38 112.132 184.168 92.7175 195.353 84.6986C206.537 76.6797 224.843 83.1159 236.291 99.0482Z" fill="url(#paint70_linear_2113_1342)"/>
<path opacity="0.25" d="M213.132 88.2332C210.388 89.7631 206.906 92.4537 204.532 97.36C197.832 111.288 206.484 130.543 207.698 133.234C206.221 132.073 204.638 130.649 202.95 128.855C197.832 123.316 195.247 117.46 193.981 114.136C195.511 113.451 198.518 111.71 200.206 107.595C203.161 100.473 199.679 91.8733 199.046 90.3434C200.417 89.4465 202.422 88.4442 205.218 87.9694C208.384 87.4946 211.232 87.8639 213.132 88.2332Z" fill="white"/>
<path opacity="0.4" d="M216.877 73.4087C216.666 73.6197 216.139 74.3584 216.191 75.6245C216.244 76.5214 216.561 77.3127 216.719 77.7347C215.136 77.1017 213.343 76.5741 211.391 76.1521C205.798 75.0442 201.578 75.9937 198.993 76.8906C199.151 76.7851 200.206 75.941 200.048 74.1473C199.943 73.0922 199.468 72.1953 199.257 71.826C200.628 71.5623 202.158 71.3512 203.846 71.2985C208.753 71.1402 213.343 72.2481 216.877 73.4087Z" fill="white"/>
<path opacity="0.4" d="M202.528 143.838C202.475 143.469 202.317 142.361 202.791 141.411C203.161 140.725 203.688 140.409 203.952 140.303C202.475 139.143 200.839 137.771 199.151 136.03C194.35 131.177 191.343 126.112 189.655 122.683C189.761 122.947 190.236 124.688 189.497 125.954C189.022 126.692 188.336 126.903 188.02 126.956C188.969 128.592 190.13 130.28 191.449 132.073C195.3 137.349 199.31 141.2 202.528 143.838Z" fill="white"/>
<path d="M234.656 139.459C224.632 146.634 208.172 140.884 197.885 126.587C187.65 112.29 187.439 94.8276 197.463 87.6528C207.487 80.478 223.946 86.2284 234.234 100.525C244.468 114.822 244.679 132.284 234.656 139.459ZM198.201 88.6552C188.6 95.5662 188.758 112.343 198.624 126.059C208.489 139.776 224.316 145.315 233.917 138.404C243.519 131.493 243.361 114.717 233.495 101C223.683 87.3363 207.803 81.7969 198.201 88.6552Z" fill="url(#paint71_linear_2113_1342)"/>
<defs>
<linearGradient id="paint0_linear_2113_1342" x1="131.789" y1="104.404" x2="88.2932" y2="148.65" gradientUnits="userSpaceOnUse">
<stop stop-color="#FFCD23"/>
<stop offset="1" stop-color="#FFA71A"/>
</linearGradient>
<linearGradient id="paint1_linear_2113_1342" x1="167.04" y1="112.364" x2="73.6149" y2="103.893" gradientUnits="userSpaceOnUse">
<stop stop-color="#FFFF7B"/>
<stop offset="1" stop-color="#FFD250"/>
</linearGradient>
<linearGradient id="paint2_linear_2113_1342" x1="167.701" y1="108.161" x2="76.9717" y2="108.161" gradientUnits="userSpaceOnUse">
<stop stop-color="#FFEC2D"/>
<stop offset="1" stop-color="#FFBB0C"/>
</linearGradient>
<linearGradient id="paint3_linear_2113_1342" x1="85.8938" y1="97.5001" x2="160.578" y2="120.387" gradientUnits="userSpaceOnUse">
<stop stop-color="#EDA018"/>
<stop offset="1" stop-color="#FFBB0C"/>
</linearGradient>
<linearGradient id="paint4_linear_2113_1342" x1="147.202" y1="109.66" x2="80.9173" y2="109.66" gradientUnits="userSpaceOnUse">
<stop stop-color="#FFEC2D"/>
<stop offset="1" stop-color="#FFBB0C"/>
</linearGradient>
<linearGradient id="paint5_linear_2113_1342" x1="147.309" y1="116.977" x2="96.6833" y2="103.067" gradientUnits="userSpaceOnUse">
<stop stop-color="#FFCD23"/>
<stop offset="1" stop-color="#FFA71A"/>
</linearGradient>
<linearGradient id="paint6_linear_2113_1342" x1="131.789" y1="89.9496" x2="88.2932" y2="134.195" gradientUnits="userSpaceOnUse">
<stop stop-color="#FFCD23"/>
<stop offset="1" stop-color="#FFA71A"/>
</linearGradient>
<linearGradient id="paint7_linear_2113_1342" x1="167.04" y1="97.9092" x2="73.6149" y2="89.4386" gradientUnits="userSpaceOnUse">
<stop stop-color="#FFFF7B"/>
<stop offset="1" stop-color="#FFD250"/>
</linearGradient>
<linearGradient id="paint8_linear_2113_1342" x1="167.701" y1="93.7058" x2="76.9717" y2="93.7058" gradientUnits="userSpaceOnUse">
<stop stop-color="#FFEC2D"/>
<stop offset="1" stop-color="#FFBB0C"/>
</linearGradient>
<linearGradient id="paint9_linear_2113_1342" x1="85.8938" y1="83.0454" x2="160.578" y2="105.932" gradientUnits="userSpaceOnUse">
<stop stop-color="#EDA018"/>
<stop offset="1" stop-color="#FFBB0C"/>
</linearGradient>
<linearGradient id="paint10_linear_2113_1342" x1="147.202" y1="95.2059" x2="80.9173" y2="95.2059" gradientUnits="userSpaceOnUse">
<stop stop-color="#FFEC2D"/>
<stop offset="1" stop-color="#FFBB0C"/>
</linearGradient>
<linearGradient id="paint11_linear_2113_1342" x1="147.309" y1="102.522" x2="96.6833" y2="88.6124" gradientUnits="userSpaceOnUse">
<stop stop-color="#FFCD23"/>
<stop offset="1" stop-color="#FFA71A"/>
</linearGradient>
<linearGradient id="paint12_linear_2113_1342" x1="131.789" y1="75.4951" x2="88.2933" y2="119.741" gradientUnits="userSpaceOnUse">
<stop stop-color="#FFCD23"/>
<stop offset="1" stop-color="#FFA71A"/>
</linearGradient>
<linearGradient id="paint13_linear_2113_1342" x1="167.04" y1="83.4547" x2="73.6149" y2="74.9841" gradientUnits="userSpaceOnUse">
<stop stop-color="#FFFF7B"/>
<stop offset="1" stop-color="#FFD250"/>
</linearGradient>
<linearGradient id="paint14_linear_2113_1342" x1="167.701" y1="79.2515" x2="76.9717" y2="79.2515" gradientUnits="userSpaceOnUse">
<stop stop-color="#FFEC2D"/>
<stop offset="1" stop-color="#FFBB0C"/>
</linearGradient>
<linearGradient id="paint15_linear_2113_1342" x1="85.8938" y1="68.591" x2="160.578" y2="91.478" gradientUnits="userSpaceOnUse">
<stop stop-color="#EDA018"/>
<stop offset="1" stop-color="#FFBB0C"/>
</linearGradient>
<linearGradient id="paint16_linear_2113_1342" x1="147.202" y1="80.7515" x2="80.9173" y2="80.7515" gradientUnits="userSpaceOnUse">
<stop stop-color="#FFEC2D"/>
<stop offset="1" stop-color="#FFBB0C"/>
</linearGradient>
<linearGradient id="paint17_linear_2113_1342" x1="147.309" y1="88.0679" x2="96.6834" y2="74.1579" gradientUnits="userSpaceOnUse">
<stop stop-color="#FFCD23"/>
<stop offset="1" stop-color="#FFA71A"/>
</linearGradient>
<linearGradient id="paint18_linear_2113_1342" x1="131.789" y1="61.0407" x2="88.2933" y2="105.286" gradientUnits="userSpaceOnUse">
<stop stop-color="#FFCD23"/>
<stop offset="1" stop-color="#FFA71A"/>
</linearGradient>
<linearGradient id="paint19_linear_2113_1342" x1="167.04" y1="69.0003" x2="73.6148" y2="60.5297" gradientUnits="userSpaceOnUse">
<stop stop-color="#FFFF7B"/>
<stop offset="1" stop-color="#FFD250"/>
</linearGradient>
<linearGradient id="paint20_linear_2113_1342" x1="167.701" y1="64.797" x2="76.9717" y2="64.797" gradientUnits="userSpaceOnUse">
<stop stop-color="#FFEC2D"/>
<stop offset="1" stop-color="#FFBB0C"/>
</linearGradient>
<linearGradient id="paint21_linear_2113_1342" x1="85.8938" y1="54.1366" x2="160.578" y2="77.0235" gradientUnits="userSpaceOnUse">
<stop stop-color="#EDA018"/>
<stop offset="1" stop-color="#FFBB0C"/>
</linearGradient>
<linearGradient id="paint22_linear_2113_1342" x1="147.202" y1="66.2969" x2="80.9173" y2="66.2969" gradientUnits="userSpaceOnUse">
<stop stop-color="#FFEC2D"/>
<stop offset="1" stop-color="#FFBB0C"/>
</linearGradient>
<linearGradient id="paint23_linear_2113_1342" x1="147.309" y1="73.6133" x2="96.6833" y2="59.7034" gradientUnits="userSpaceOnUse">
<stop stop-color="#FFCD23"/>
<stop offset="1" stop-color="#FFA71A"/>
</linearGradient>
<linearGradient id="paint24_linear_2113_1342" x1="119.467" y1="48.9831" x2="75.9714" y2="93.2287" gradientUnits="userSpaceOnUse">
<stop stop-color="#FFCD23"/>
<stop offset="1" stop-color="#FFA71A"/>
</linearGradient>
<linearGradient id="paint25_linear_2113_1342" x1="154.718" y1="56.9428" x2="61.293" y2="48.4721" gradientUnits="userSpaceOnUse">
<stop stop-color="#FFFF7B"/>
<stop offset="1" stop-color="#FFD250"/>
</linearGradient>
<linearGradient id="paint26_linear_2113_1342" x1="155.379" y1="52.7395" x2="64.6497" y2="52.7395" gradientUnits="userSpaceOnUse">
<stop stop-color="#FFEC2D"/>
<stop offset="1" stop-color="#FFBB0C"/>
</linearGradient>
<linearGradient id="paint27_linear_2113_1342" x1="73.5719" y1="42.079" x2="148.256" y2="64.966" gradientUnits="userSpaceOnUse">
<stop stop-color="#EDA018"/>
<stop offset="1" stop-color="#FFBB0C"/>
</linearGradient>
<linearGradient id="paint28_linear_2113_1342" x1="134.88" y1="54.2394" x2="68.5955" y2="54.2394" gradientUnits="userSpaceOnUse">
<stop stop-color="#FFEC2D"/>
<stop offset="1" stop-color="#FFBB0C"/>
</linearGradient>
<linearGradient id="paint29_linear_2113_1342" x1="134.987" y1="61.5559" x2="84.3614" y2="47.646" gradientUnits="userSpaceOnUse">
<stop stop-color="#FFCD23"/>
<stop offset="1" stop-color="#FFA71A"/>
</linearGradient>
<linearGradient id="paint30_linear_2113_1342" x1="116.541" y1="28.6662" x2="73.0455" y2="72.9117" gradientUnits="userSpaceOnUse">
<stop stop-color="#FFCD23"/>
<stop offset="1" stop-color="#FFA71A"/>
</linearGradient>
<linearGradient id="paint31_linear_2113_1342" x1="151.792" y1="36.6258" x2="58.3671" y2="28.1552" gradientUnits="userSpaceOnUse">
<stop stop-color="#FFFF7B"/>
<stop offset="1" stop-color="#FFD250"/>
</linearGradient>
<linearGradient id="paint32_linear_2113_1342" x1="152.454" y1="32.4225" x2="61.724" y2="32.4225" gradientUnits="userSpaceOnUse">
<stop stop-color="#FFEC2D"/>
<stop offset="1" stop-color="#FFBB0C"/>
</linearGradient>
<linearGradient id="paint33_linear_2113_1342" x1="70.6461" y1="21.762" x2="145.33" y2="44.649" gradientUnits="userSpaceOnUse">
<stop stop-color="#EDA018"/>
<stop offset="1" stop-color="#FFBB0C"/>
</linearGradient>
<linearGradient id="paint34_linear_2113_1342" x1="131.954" y1="33.9224" x2="65.6696" y2="33.9224" gradientUnits="userSpaceOnUse">
<stop stop-color="#FFEC2D"/>
<stop offset="1" stop-color="#FFBB0C"/>
</linearGradient>
<linearGradient id="paint35_linear_2113_1342" x1="132.061" y1="41.2389" x2="81.4356" y2="27.3289" gradientUnits="userSpaceOnUse">
<stop stop-color="#FFCD23"/>
<stop offset="1" stop-color="#FFA71A"/>
</linearGradient>
<linearGradient id="paint36_linear_2113_1342" x1="133.234" y1="17.0327" x2="89.7387" y2="61.2784" gradientUnits="userSpaceOnUse">
<stop stop-color="#FFCD23"/>
<stop offset="1" stop-color="#FFA71A"/>
</linearGradient>
<linearGradient id="paint37_linear_2113_1342" x1="168.486" y1="24.9924" x2="75.0602" y2="16.5217" gradientUnits="userSpaceOnUse">
<stop stop-color="#FFFF7B"/>
<stop offset="1" stop-color="#FFD250"/>
</linearGradient>
<linearGradient id="paint38_linear_2113_1342" x1="169.147" y1="20.789" x2="78.417" y2="20.789" gradientUnits="userSpaceOnUse">
<stop stop-color="#FFEC2D"/>
<stop offset="1" stop-color="#FFBB0C"/>
</linearGradient>
<linearGradient id="paint39_linear_2113_1342" x1="87.3392" y1="10.1285" x2="162.023" y2="33.0156" gradientUnits="userSpaceOnUse">
<stop stop-color="#EDA018"/>
<stop offset="1" stop-color="#FFBB0C"/>
</linearGradient>
<linearGradient id="paint40_linear_2113_1342" x1="148.648" y1="22.2889" x2="82.3627" y2="22.2889" gradientUnits="userSpaceOnUse">
<stop stop-color="#FFEC2D"/>
<stop offset="1" stop-color="#FFBB0C"/>
</linearGradient>
<linearGradient id="paint41_linear_2113_1342" x1="148.754" y1="29.6054" x2="98.1286" y2="15.6955" gradientUnits="userSpaceOnUse">
<stop stop-color="#FFCD23"/>
<stop offset="1" stop-color="#FFA71A"/>
</linearGradient>
<linearGradient id="paint42_linear_2113_1342" x1="162.289" y1="128.271" x2="118.793" y2="172.516" gradientUnits="userSpaceOnUse">
<stop stop-color="#FFCD23"/>
<stop offset="1" stop-color="#FFA71A"/>
</linearGradient>
<linearGradient id="paint43_linear_2113_1342" x1="197.54" y1="136.23" x2="104.115" y2="127.76" gradientUnits="userSpaceOnUse">
<stop stop-color="#FFFF7B"/>
<stop offset="1" stop-color="#FFD250"/>
</linearGradient>
<linearGradient id="paint44_linear_2113_1342" x1="198.201" y1="132.027" x2="107.471" y2="132.027" gradientUnits="userSpaceOnUse">
<stop stop-color="#FFEC2D"/>
<stop offset="1" stop-color="#FFBB0C"/>
</linearGradient>
<linearGradient id="paint45_linear_2113_1342" x1="116.394" y1="121.367" x2="191.077" y2="144.254" gradientUnits="userSpaceOnUse">
<stop stop-color="#EDA018"/>
<stop offset="1" stop-color="#FFBB0C"/>
</linearGradient>
<linearGradient id="paint46_linear_2113_1342" x1="177.702" y1="133.527" x2="111.417" y2="133.527" gradientUnits="userSpaceOnUse">
<stop stop-color="#FFEC2D"/>
<stop offset="1" stop-color="#FFBB0C"/>
</linearGradient>
<linearGradient id="paint47_linear_2113_1342" x1="177.809" y1="140.843" x2="127.183" y2="126.934" gradientUnits="userSpaceOnUse">
<stop stop-color="#FFCD23"/>
<stop offset="1" stop-color="#FFA71A"/>
</linearGradient>
<linearGradient id="paint48_linear_2113_1342" x1="162.289" y1="113.816" x2="118.793" y2="158.062" gradientUnits="userSpaceOnUse">
<stop stop-color="#FFCD23"/>
<stop offset="1" stop-color="#FFA71A"/>
</linearGradient>
<linearGradient id="paint49_linear_2113_1342" x1="197.54" y1="121.776" x2="104.115" y2="113.305" gradientUnits="userSpaceOnUse">
<stop stop-color="#FFFF7B"/>
<stop offset="1" stop-color="#FFD250"/>
</linearGradient>
<linearGradient id="paint50_linear_2113_1342" x1="198.201" y1="117.573" x2="107.471" y2="117.573" gradientUnits="userSpaceOnUse">
<stop stop-color="#FFEC2D"/>
<stop offset="1" stop-color="#FFBB0C"/>
</linearGradient>
<linearGradient id="paint51_linear_2113_1342" x1="116.394" y1="106.912" x2="191.077" y2="129.799" gradientUnits="userSpaceOnUse">
<stop stop-color="#EDA018"/>
<stop offset="1" stop-color="#FFBB0C"/>
</linearGradient>
<linearGradient id="paint52_linear_2113_1342" x1="177.702" y1="119.072" x2="111.417" y2="119.072" gradientUnits="userSpaceOnUse">
<stop stop-color="#FFEC2D"/>
<stop offset="1" stop-color="#FFBB0C"/>
</linearGradient>
<linearGradient id="paint53_linear_2113_1342" x1="177.809" y1="126.389" x2="127.183" y2="112.479" gradientUnits="userSpaceOnUse">
<stop stop-color="#FFCD23"/>
<stop offset="1" stop-color="#FFA71A"/>
</linearGradient>
<linearGradient id="paint54_linear_2113_1342" x1="162.289" y1="99.2452" x2="118.794" y2="143.491" gradientUnits="userSpaceOnUse">
<stop stop-color="#FFCD23"/>
<stop offset="1" stop-color="#FFA71A"/>
</linearGradient>
<linearGradient id="paint55_linear_2113_1342" x1="197.54" y1="107.205" x2="104.115" y2="98.7342" gradientUnits="userSpaceOnUse">
<stop stop-color="#FFFF7B"/>
<stop offset="1" stop-color="#FFD250"/>
</linearGradient>
<linearGradient id="paint56_linear_2113_1342" x1="198.202" y1="103.001" x2="107.472" y2="103.001" gradientUnits="userSpaceOnUse">
<stop stop-color="#FFEC2D"/>
<stop offset="1" stop-color="#FFBB0C"/>
</linearGradient>
<linearGradient id="paint57_linear_2113_1342" x1="116.394" y1="92.341" x2="191.078" y2="115.228" gradientUnits="userSpaceOnUse">
<stop stop-color="#EDA018"/>
<stop offset="1" stop-color="#FFBB0C"/>
</linearGradient>
<linearGradient id="paint58_linear_2113_1342" x1="177.702" y1="104.502" x2="111.417" y2="104.502" gradientUnits="userSpaceOnUse">
<stop stop-color="#FFEC2D"/>
<stop offset="1" stop-color="#FFBB0C"/>
</linearGradient>
<linearGradient id="paint59_linear_2113_1342" x1="177.809" y1="111.818" x2="127.184" y2="97.908" gradientUnits="userSpaceOnUse">
<stop stop-color="#FFCD23"/>
<stop offset="1" stop-color="#FFA71A"/>
</linearGradient>
<linearGradient id="paint60_linear_2113_1342" x1="45.202" y1="106.197" x2="72.9377" y2="171.683" gradientUnits="userSpaceOnUse">
<stop stop-color="#FFCD23"/>
<stop offset="1" stop-color="#FFA71A"/>
</linearGradient>
<linearGradient id="paint61_linear_2113_1342" x1="63.3902" y1="72.0129" x2="23.73" y2="157.269" gradientUnits="userSpaceOnUse">
<stop stop-color="#FFFF7B"/>
<stop offset="1" stop-color="#FFD250"/>
</linearGradient>
<linearGradient id="paint62_linear_2113_1342" x1="59.612" y1="70.0682" x2="28.9279" y2="155.452" gradientUnits="userSpaceOnUse">
<stop stop-color="#FFEC2D"/>
<stop offset="1" stop-color="#FFBB0C"/>
</linearGradient>
<linearGradient id="paint63_linear_2113_1342" x1="21.3487" y1="144.204" x2="69.356" y2="80.0422" gradientUnits="userSpaceOnUse">
<stop stop-color="#EDA018"/>
<stop offset="1" stop-color="#FFBB0C"/>
</linearGradient>
<linearGradient id="paint64_linear_2113_1342" x1="53.6203" y1="89.6977" x2="31.2034" y2="152.077" gradientUnits="userSpaceOnUse">
<stop stop-color="#FFEC2D"/>
<stop offset="1" stop-color="#FFBB0C"/>
</linearGradient>
<linearGradient id="paint65_linear_2113_1342" x1="60.8735" y1="91.6003" x2="30.0316" y2="135.435" gradientUnits="userSpaceOnUse">
<stop stop-color="#FFCD23"/>
<stop offset="1" stop-color="#FFA71A"/>
</linearGradient>
<linearGradient id="paint66_linear_2113_1342" x1="212.432" y1="107.917" x2="201.116" y2="168.664" gradientUnits="userSpaceOnUse">
<stop stop-color="#FFCD23"/>
<stop offset="1" stop-color="#FFA71A"/>
</linearGradient>
<linearGradient id="paint67_linear_2113_1342" x1="186.59" y1="77.5838" x2="248.04" y2="148.629" gradientUnits="userSpaceOnUse">
<stop stop-color="#FFFF7B"/>
<stop offset="1" stop-color="#FFD250"/>
</linearGradient>
<linearGradient id="paint68_linear_2113_1342" x1="189.66" y1="74.6419" x2="242.575" y2="148.343" gradientUnits="userSpaceOnUse">
<stop stop-color="#FFEC2D"/>
<stop offset="1" stop-color="#FFBB0C"/>
</linearGradient>
<linearGradient id="paint69_linear_2113_1342" x1="246.457" y1="135.203" x2="183.394" y2="87.1876" gradientUnits="userSpaceOnUse">
<stop stop-color="#EDA018"/>
<stop offset="1" stop-color="#FFBB0C"/>
</linearGradient>
<linearGradient id="paint70_linear_2113_1342" x1="200.6" y1="92.0229" x2="239.258" y2="145.867" gradientUnits="userSpaceOnUse">
<stop stop-color="#FFEC2D"/>
<stop offset="1" stop-color="#FFBB0C"/>
</linearGradient>
<linearGradient id="paint71_linear_2113_1342" x1="194.34" y1="95.9974" x2="235.648" y2="129.4" gradientUnits="userSpaceOnUse">
<stop stop-color="#FFCD23"/>
<stop offset="1" stop-color="#FFA71A"/>
</linearGradient>
</defs>
</svg>
