<svg width="178" height="134" viewBox="0 0 178 134" fill="none" xmlns="http://www.w3.org/2000/svg">
<path opacity="0.2" d="M155.664 60.5746L177.692 82.0088L158.308 107.637L120.86 114.937L101.329 131.866L72.1049 121.149H21.1469L35.6854 87.6003L129.671 46.1299L155.664 60.5746Z" fill="black"/>
<path d="M63.1469 0C63.8811 0.621279 108.525 0.155306 108.525 0.155306L132.755 15.2213L151.993 38.6746L161.392 85.4259L136.72 106.239L58.5945 114.937L49.049 36.6555L63.1469 0Z" fill="#03003B"/>
<path d="M88.1119 22.832L90.6085 0.465908L107.643 0.155273L130.993 15.2213L150.084 37.898L153.462 54.9832L135.546 63.2151L117.483 56.6917L97.8043 39.1406L88.1119 22.832Z" fill="url(#paint0_linear_1_3863)"/>
<path d="M63.1469 29.6661L63.4406 0L90.6084 0.465941L88.1119 22.832L63.1469 29.6661Z" fill="#47B6FE"/>
<path d="M97.2168 39.1404L75.7762 54.6724L106.615 82.164L117.483 56.6915L97.2168 39.1404Z" fill="#3A63CC"/>
<path d="M135.545 63.2151L134.224 89.1535L159.336 83.562L153.462 54.9832L135.545 63.2151Z" fill="#191981"/>
<path d="M75.7762 54.6726L63.1469 29.6661L88.1119 22.832L97.2168 39.1406L75.7762 54.6726Z" fill="#5B9DFE"/>
<path d="M106.615 82.1643L134.224 89.1537L135.545 63.2153L117.483 56.6919L106.615 82.1643Z" fill="#2064A8"/>
<path d="M75.7762 54.6724L59.1819 111.985L106.615 82.164L75.7762 54.6724Z" fill="#1919C2"/>
<path d="M63.1469 29.666L59.1819 111.986L75.7762 54.6725L63.1469 29.666Z" fill="#004FEA"/>
<path d="M134.224 89.1535L59.1819 111.985L106.615 82.1641L134.224 89.1535Z" fill="#1919A4"/>
<path d="M135.399 103.754L134.224 89.1535L159.336 83.562L135.399 103.754Z" fill="#1614A4"/>
<path d="M49.7833 35.7236L63.1469 29.6661L63.4406 0L49.7833 35.7236Z" fill="#3DA8E2"/>
<path d="M134.224 89.1536L135.399 103.754L59.1819 111.986L134.224 89.1536Z" fill="#191981"/>
<path d="M63.1469 29.666L59.1819 111.986L49.7833 35.7235L63.1469 29.666Z" fill="#006DFF"/>
<path d="M90.6084 0.466064L89.4336 21.2789L98.3916 37.8982L117.483 55.294L135.399 61.9727L153.462 54.9833L136.133 63.8366L117.042 57.4685L96.4826 40.0726L75.7763 54.6727L96.6294 38.2088L87.3776 23.6087L63.1469 29.6662L86.4966 20.9683L90.6084 0.466064Z" fill="white"/>
<path d="M88.2588 0.465941L63.4406 0L52.7203 27.9576L62.5595 4.34894L63.2937 22.6767L65.3497 1.86383L88.2588 0.465941Z" fill="white"/>
<path d="M116.161 59.4875L105.587 80.3004L89.2867 66.6323L104.413 81.6983L65.056 108.258L106.909 83.5621L126.734 87.1345L109.406 81.077L116.161 59.4875Z" fill="#191981"/>
<path d="M134.958 65.2344L133.343 87.2898L88.8462 102.977L133.049 90.3962L135.399 103.754L135.545 90.3962L158.455 83.7174L135.839 87.2898L134.958 65.2344Z" fill="#191963"/>
<path d="M51.5455 37.7429C51.2518 38.2089 22.028 46.1302 22.028 46.1302L8.66437 60.2643L0 79.058L1.46853 111.365L20.8532 120.373L73.2798 111.83L66.8182 59.0218L51.5455 37.7429Z" fill="#03003B"/>
<path d="M38.9161 57.1578L33.7762 43.0237L22.6154 45.9747L9.69231 60.1089L1.02798 78.2813L1.46853 90.0856L14.5385 92.2601L25.4056 84.6494L35.3916 69.7387L38.9161 57.1578Z" fill="url(#paint1_linear_1_3863)"/>
<path d="M56.3917 57.1579L51.3986 37.7429L33.7762 43.0238L38.9161 57.1579H56.3917Z" fill="#47B6FE"/>
<path d="M35.6853 69.5833L52.2797 75.796L36.5665 99.2494L25.4056 84.6493L35.6853 69.5833Z" fill="#3A63CC"/>
<path d="M14.5385 92.2602L19.6784 108.879L2.34966 109.811L1.46854 90.0857L14.5385 92.2602Z" fill="#191981"/>
<path d="M52.2797 75.7961L56.3917 57.1577H38.9161L35.6853 69.5833L52.2797 75.7961Z" fill="#5B9DFE"/>
<path d="M36.5665 99.2495L19.6784 108.879L14.5385 92.2601L25.4056 84.6494L36.5665 99.2495Z" fill="#2064A8"/>
<path d="M52.2797 75.7961L72.3987 110.277L36.5665 99.2495L52.2797 75.7961Z" fill="#1919C2"/>
<path d="M56.3916 57.1577L72.3986 110.277L52.2797 75.7961L56.3916 57.1577Z" fill="#004FEA"/>
<path d="M19.6784 108.879L72.3987 110.277L36.5665 99.2495L19.6784 108.879Z" fill="#1919A4"/>
<path d="M21.2937 118.665L19.6783 108.88L2.34964 109.812L21.2937 118.665Z" fill="#1614A4"/>
<path d="M66.2308 58.7111L56.3917 57.1579L51.3986 37.7429L66.2308 58.7111Z" fill="#3DA8E2"/>
<path d="M19.6784 108.88L21.2937 118.665L72.3987 110.278L19.6784 108.88Z" fill="#191981"/>
<path d="M56.3917 57.1577L72.3987 110.277L66.2308 58.7109L56.3917 57.1577Z" fill="#006DFF"/>
<path d="M33.7762 43.0237L37.8882 56.5365L34.8042 68.9621L25.1119 83.7175L14.3916 91.3281L1.46854 90.0856L14.2448 92.726L25.6993 85.1153L36.4196 70.0493L52.2798 75.7962L35.979 68.8068L39.6504 57.6237L56.3917 57.1578L39.7972 55.7599L33.7762 43.0237Z" fill="white"/>
<path d="M35.2448 42.5578L51.3986 37.7429L63 54.0515L52.7203 40.5387L55.2168 52.6536L50.5175 39.2961L35.2448 42.5578Z" fill="white"/>
<path d="M26.5804 86.2024L37.007 97.8514L45.3777 86.0471L37.8881 98.628L67.993 108.879L36.5665 100.337L24.2308 106.239L34.5105 99.2493L26.5804 86.2024Z" fill="#191981"/>
<path d="M15.2728 93.5027L19.9721 107.637L51.5455 109.656L20.7063 109.501L21.2937 118.665L19.0909 109.967L3.08394 109.811L18.3567 107.947L15.2728 93.5027Z" fill="#191963"/>
<path d="M115.427 70.3598C114.986 70.5152 91.4895 63.0598 91.4895 63.0598L76.5105 67.2534L63.0001 76.8833L51.2518 100.647L61.2378 115.869L101.182 133.264L117.483 92.4153L115.427 70.3598Z" fill="#03003B"/>
<path d="M98.8322 78.592L100.888 66.1664L91.9301 63.2153L77.3916 67.5643L64.028 76.7282L59.7693 85.4261L67.993 92.7261L78.5664 92.1048L91.4895 85.892L98.8322 78.592Z" fill="url(#paint2_linear_1_3863)"/>
<path d="M111.021 86.3578L115.28 70.2046L100.888 66.1663L98.8322 78.5918L111.021 86.3578Z" fill="#47B6FE"/>
<path d="M91.7832 86.0471L100.888 97.8514L80.6224 107.637L78.5664 92.1046L91.7832 86.0471Z" fill="#3A63CC"/>
<path d="M67.993 92.7258L65.056 107.015L52.5735 99.8705L59.7693 85.4258L67.993 92.7258Z" fill="#191981"/>
<path d="M100.888 97.8515L111.021 86.3578L98.8321 78.5918L91.7832 86.0472L100.888 97.8515Z" fill="#5B9DFE"/>
<path d="M80.6224 107.636L65.056 107.015L67.993 92.7258L78.5665 92.1045L80.6224 107.636Z" fill="#2064A8"/>
<path d="M100.888 97.8513L101.329 131.556L80.6224 107.636L100.888 97.8513Z" fill="#1919C2"/>
<path d="M111.021 86.3577L101.329 131.556L100.888 97.8513L111.021 86.3577Z" fill="#004FEA"/>
<path d="M65.056 107.015L101.329 131.556L80.6224 107.637L65.056 107.015Z" fill="#1919A4"/>
<path d="M62.2658 114.626L65.056 107.015L52.5735 99.8706L62.2658 114.626Z" fill="#1614A4"/>
<path d="M117.336 91.7938L111.021 86.3576L115.28 70.2043L117.336 91.7938Z" fill="#3DA8E2"/>
<path d="M65.056 107.015L62.2658 114.626L101.329 131.556L65.056 107.015Z" fill="#191981"/>
<path d="M111.021 86.3577L101.329 131.556L117.336 91.7939L111.021 86.3577Z" fill="#006DFF"/>
<path d="M100.888 66.1663L98.3916 77.5046L91.3427 85.1153L78.7133 91.3281L68.2867 92.1047L59.7693 85.4259L67.5525 93.0366L78.5664 92.5707L92.077 86.5132L100.888 97.8515L92.2238 85.5812L99.1259 79.2131L111.021 86.3578L100.007 77.9706L100.888 66.1663Z" fill="white"/>
<path d="M102.063 66.4768L115.28 70.2045L116.895 87.1343L115.133 72.8449L112.049 82.6301L113.958 70.9811L102.063 66.4768Z" fill="white"/>
<path d="M78.7133 93.8132L81.3567 106.86L91.9301 102.2L81.7972 107.792L98.6853 128.605L80.1818 108.413L69.3147 107.171L79.3007 106.705L78.7133 93.8132Z" fill="#191981"/>
<path d="M67.9931 93.9685L65.7903 106.083L86.9371 121.926L65.4965 107.947L62.2658 114.626L64.028 107.481L53.014 100.181L64.4686 105.773L67.9931 93.9685Z" fill="#191963"/>
<defs>
<linearGradient id="paint0_linear_1_3863" x1="89.0798" y1="2.18655" x2="151.434" y2="57.3158" gradientUnits="userSpaceOnUse">
<stop stop-color="#A0F5FF"/>
<stop offset="0.4765" stop-color="#7FD3FF"/>
<stop offset="1" stop-color="#5EB1FF"/>
</linearGradient>
<linearGradient id="paint1_linear_1_3863" x1="35.029" y1="43.9311" x2="3.45623" y2="91.4089" gradientUnits="userSpaceOnUse">
<stop stop-color="#A0F5FF"/>
<stop offset="0.4765" stop-color="#7FD3FF"/>
<stop offset="1" stop-color="#5EB1FF"/>
</linearGradient>
<linearGradient id="paint2_linear_1_3863" x1="101.479" y1="67.4913" x2="60.6396" y2="87.2252" gradientUnits="userSpaceOnUse">
<stop stop-color="#A0F5FF"/>
<stop offset="0.4765" stop-color="#7FD3FF"/>
<stop offset="1" stop-color="#5EB1FF"/>
</linearGradient>
</defs>
</svg>
