<svg width="20" height="20" viewBox="0 0 20 20" fill="none" xmlns="http://www.w3.org/2000/svg">
<path d="M7.14587 7.24326H12.8541L11.7013 2.22864H8.29873L7.14587 7.24326Z" fill="currentColor"/>
<path d="M14.0455 8.41492L12.0002 16.4608L19.9255 8.41492H14.0455Z" fill="currentColor"/>
<path d="M5.95451 8.41492H0.0744019L7.99979 16.4608L5.95451 8.41492Z" fill="currentColor"/>
<path d="M5.94361 7.24326L7.09646 2.22864H3.54589C3.34659 2.22864 3.16103 2.32995 3.0532 2.4975L0 7.24326H5.94361Z" fill="currentColor"/>
<path d="M14.0564 7.24326H20L16.9468 2.4975C16.839 2.32991 16.6534 2.22864 16.4541 2.22864H12.9036L14.0564 7.24326Z" fill="currentColor"/>
<path d="M12.8365 8.41492H7.16345L9.42905 17.3274C9.53376 17.7394 9.89252 17.7714 9.99997 17.7714C10.1074 17.7714 10.4662 17.7394 10.5709 17.3274L12.8365 8.41492Z" fill="currentColor"/>
</svg>
