<svg width="20" height="20" viewBox="0 0 20 20" fill="none" xmlns="http://www.w3.org/2000/svg">
<path fill-rule="evenodd" clip-rule="evenodd" d="M11.3 1.04596C11.503 1.1098 11.6804 1.23674 11.8063 1.40831C11.9322 1.57989 12 1.78715 12 1.99996V6.99996H16C16.1829 6.99987 16.3624 7.04997 16.5188 7.14478C16.6752 7.23959 16.8027 7.3755 16.8872 7.5377C16.9718 7.6999 17.0102 7.88219 16.9984 8.06472C16.9865 8.24726 16.9248 8.42304 16.82 8.57296L9.82002 18.573C9.69819 18.7475 9.52385 18.8786 9.32236 18.9472C9.12087 19.0158 8.90274 19.0184 8.69971 18.9544C8.49669 18.8905 8.31935 18.7635 8.19351 18.5918C8.06767 18.4201 7.99988 18.2128 8.00002 18V13H4.00002C3.8171 13 3.63766 12.9499 3.48124 12.8551C3.32481 12.7603 3.19738 12.6244 3.11283 12.4622C3.02827 12.3 2.98983 12.1177 3.00167 11.9352C3.01352 11.7527 3.07521 11.5769 3.18002 11.427L10.18 1.42696C10.302 1.25274 10.4764 1.12197 10.6778 1.05363C10.8792 0.985295 11.0972 0.982957 11.3 1.04696" fill="currentColor"/>
</svg>
