<svg width="20" height="20" viewBox="0 0 20 20" fill="none" xmlns="http://www.w3.org/2000/svg">
<path opacity="0.5" d="M1.66669 9.99996C1.66669 6.07159 1.66669 4.1074 2.88708 2.88701C4.10746 1.66663 6.07165 1.66663 10 1.66663C13.9284 1.66663 15.8926 1.66663 17.113 2.88701C18.3334 4.1074 18.3334 6.07159 18.3334 9.99996C18.3334 13.9283 18.3334 15.8925 17.113 17.1129C15.8926 18.3333 13.9284 18.3333 10 18.3333C6.07165 18.3333 4.10746 18.3333 2.88708 17.1129C1.66669 15.8925 1.66669 13.9283 1.66669 9.99996Z" fill="currentColor"/>
<path d="M14.6468 8.7335C14.8678 8.46833 14.832 8.07423 14.5668 7.85325C14.3016 7.63227 13.9075 7.6681 13.6865 7.93327L12.1891 9.73017C11.8801 10.101 11.6904 10.3263 11.534 10.4675C11.4616 10.5329 11.4186 10.559 11.3979 10.569C11.3938 10.571 11.3908 10.5722 11.3889 10.5729C11.3889 10.5729 11.3853 10.5715 11.3825 10.5703L11.3798 10.569C11.3592 10.559 11.3162 10.5329 11.2437 10.4675C11.0874 10.3263 10.8976 10.101 10.5887 9.73017L10.345 9.43776L10.345 9.43776C10.0713 9.10923 9.82451 8.81305 9.59402 8.60492C9.34323 8.37846 9.02735 8.17676 8.61111 8.17676C8.19487 8.17676 7.87898 8.37846 7.6282 8.60492C7.3977 8.81306 7.15094 9.10923 6.87722 9.43777L5.35319 11.2666C5.13221 11.5318 5.16804 11.9259 5.43321 12.1469C5.69839 12.3678 6.09249 12.332 6.31347 12.0668L7.81088 10.2699C8.11987 9.89916 8.30962 9.6738 8.46594 9.53265C8.53844 9.46718 8.58144 9.44109 8.60205 9.43112L8.60769 9.42854L8.61111 9.42717C8.61299 9.42787 8.61597 9.42909 8.62016 9.43112C8.64077 9.44109 8.68378 9.46718 8.75627 9.53265C8.91259 9.6738 9.10234 9.89916 9.41134 10.2699L9.655 10.5624L9.65501 10.5624C9.92873 10.8909 10.1755 11.1871 10.406 11.3952C10.6568 11.6217 10.9726 11.8233 11.3889 11.8233C11.8051 11.8233 12.121 11.6217 12.3718 11.3952C12.6023 11.1871 12.849 10.8909 13.1228 10.5624L14.6468 8.7335Z" fill="currentColor"/>
</svg>
