<svg width="26" height="26" viewBox="0 0 26 26" fill="none" xmlns="http://www.w3.org/2000/svg">
<path d="M13 0C10.4288 0 7.91543 0.762437 5.77759 2.19089C3.63975 3.61935 1.97351 5.64967 0.989572 8.02511C0.00563265 10.4006 -0.251811 13.0144 0.249797 15.5362C0.751405 18.0579 1.98953 20.3743 3.80762 22.1924C5.6257 24.0105 7.94208 25.2486 10.4638 25.7502C12.9856 26.2518 15.5994 25.9944 17.9749 25.0104C20.3503 24.0265 22.3806 22.3602 23.8091 20.2224C25.2376 18.0846 26 15.5712 26 13C25.9954 9.55358 24.6243 6.24963 22.1874 3.81264C19.7504 1.37566 16.4464 0.00455745 13 0ZM14.7225 17.0137L13.5688 18.1675C13.1954 18.5462 12.75 18.8462 12.2588 19.05C11.7676 19.2537 11.2405 19.357 10.7088 19.3537C9.9062 19.355 9.12131 19.1181 8.45343 18.6731C7.78554 18.2282 7.26467 17.595 6.95673 16.8539C6.6488 16.1128 6.56764 15.297 6.72354 14.5097C6.87943 13.7224 7.26537 12.9991 7.8325 12.4312L8.98625 11.2775C9.05961 11.2005 9.14784 11.1391 9.24561 11.0972C9.34338 11.0553 9.44864 11.0337 9.555 11.0337C9.66137 11.0337 9.76663 11.0553 9.8644 11.0972C9.96217 11.1391 10.0504 11.2005 10.1238 11.2775C10.2009 11.3525 10.2622 11.4422 10.3041 11.5412C10.3459 11.6403 10.3675 11.7468 10.3675 11.8544C10.3675 11.9619 10.3459 12.0684 10.3041 12.1675C10.2622 12.2666 10.2009 12.3563 10.1238 12.4312L8.97 13.5687C8.51967 14.0287 8.26863 14.6475 8.27125 15.2912C8.26691 15.6105 8.3265 15.9273 8.44651 16.2231C8.56651 16.519 8.7445 16.7878 8.97 17.0137C9.19692 17.2416 9.46661 17.4225 9.7636 17.5459C10.0606 17.6693 10.379 17.7328 10.7006 17.7328C11.0222 17.7328 11.3407 17.6693 11.6377 17.5459C11.9346 17.4225 12.2043 17.2416 12.4313 17.0137L13.5688 15.8762C13.6437 15.7991 13.7334 15.7378 13.8325 15.6959C13.9316 15.6541 14.0381 15.6325 14.1456 15.6325C14.2532 15.6325 14.3597 15.6541 14.4588 15.6959C14.5578 15.7378 14.6475 15.7991 14.7225 15.8762C14.7995 15.9496 14.8609 16.0378 14.9028 16.1356C14.9447 16.2334 14.9663 16.3386 14.9663 16.445C14.9663 16.5514 14.9447 16.6566 14.9028 16.7544C14.8609 16.8522 14.7995 16.9404 14.7225 17.0137ZM15.2913 11.8462L11.8463 15.2912C11.7729 15.3683 11.6847 15.4296 11.5869 15.4715C11.4891 15.5134 11.3839 15.535 11.2775 15.535C11.1711 15.535 11.0659 15.5134 10.9681 15.4715C10.8703 15.4296 10.7821 15.3683 10.7088 15.2912C10.6317 15.2179 10.5704 15.1297 10.5285 15.0319C10.4866 14.9341 10.465 14.8289 10.465 14.7225C10.465 14.6161 10.4866 14.5109 10.5285 14.4131C10.5704 14.3153 10.6317 14.2271 10.7088 14.1537L14.1538 10.7087C14.2282 10.6328 14.3169 10.5724 14.4148 10.531C14.5127 10.4895 14.6179 10.4679 14.7242 10.4674C14.8305 10.4669 14.9359 10.4874 15.0342 10.5278C15.1325 10.5683 15.2219 10.6278 15.297 10.703C15.3722 10.7782 15.4317 10.8675 15.4722 10.9658C15.5126 11.0641 15.5331 11.1695 15.5326 11.2758C15.5321 11.3821 15.5105 11.4873 15.469 11.5852C15.4276 11.6831 15.3672 11.7718 15.2913 11.8462ZM18.1675 13.5687L17.0138 14.7225C16.9413 14.8006 16.8532 14.8627 16.7552 14.9047C16.6573 14.9467 16.5516 14.9676 16.445 14.9662C16.3387 14.9661 16.2335 14.9444 16.1357 14.9025C16.038 14.8606 15.9497 14.7994 15.8763 14.7225C15.7991 14.6475 15.7378 14.5578 15.6959 14.4587C15.6541 14.3597 15.6325 14.2532 15.6325 14.1456C15.6325 14.0381 15.6541 13.9316 15.6959 13.8325C15.7378 13.7334 15.7991 13.6437 15.8763 13.5687L17.03 12.4312C17.4803 11.9713 17.7314 11.3525 17.7288 10.7087C17.7331 10.3895 17.6735 10.0727 17.5535 9.77686C17.4335 9.48104 17.2555 9.21222 17.03 8.98625C16.8031 8.75835 16.5334 8.57752 16.2364 8.45412C15.9394 8.33073 15.621 8.26721 15.2994 8.26721C14.9778 8.26721 14.6593 8.33073 14.3624 8.45412C14.0654 8.57752 13.7957 8.75835 13.5688 8.98625L12.4313 10.1237C12.3563 10.2009 12.2666 10.2622 12.1675 10.3041C12.0684 10.3459 11.9619 10.3675 11.8544 10.3675C11.7468 10.3675 11.6403 10.3459 11.5413 10.3041C11.4422 10.2622 11.3525 10.2009 11.2775 10.1237C11.2005 10.0504 11.1391 9.96216 11.0972 9.86439C11.0553 9.76663 11.0337 9.66137 11.0337 9.555C11.0337 9.44863 11.0553 9.34337 11.0972 9.2456C11.1391 9.14784 11.2005 9.0596 11.2775 8.98625L12.4313 7.8325C13.1928 7.07589 14.2232 6.65201 15.2967 6.65375C16.3701 6.65548 17.3992 7.08269 18.1582 7.84176C18.9173 8.60083 19.3445 9.62985 19.3463 10.7033C19.348 11.7768 18.9241 12.8072 18.1675 13.5687Z" fill="currentColor"/>
</svg>
