<svg width="26" height="36" viewBox="0 0 26 36" fill="none" xmlns="http://www.w3.org/2000/svg">
<path d="M21.0826 16.3281V34.721C21.0826 35.373 20.4305 35.8077 19.8328 35.6175L14.6165 33.7429C13.5841 33.3626 12.4702 33.3626 11.4378 33.7429L6.22154 35.6175C5.62384 35.8349 4.9718 35.373 4.9718 34.721V16.3281H21.0826Z" fill="#E87145"/>
<mask id="mask0_1_665" style="mask-type:luminance" maskUnits="userSpaceOnUse" x="4" y="16" width="18" height="20">
<path d="M19.8328 35.6175L14.6165 33.7429C13.5841 33.3626 12.4702 33.3626 11.4378 33.7429L6.22154 35.6175C5.62384 35.8349 4.9718 35.373 4.9718 34.721V16.3281H21.1097V34.721C21.0826 35.373 20.4305 35.8349 19.8328 35.6175Z" fill="white"/>
</mask>
<g mask="url(#mask0_1_665)">
<path d="M25.9185 14.9154H18.7461V38.1442H25.9185V14.9154Z" fill="#FF9335"/>
<path d="M7.25383 14.9154H0.0814209V38.1442H7.25383V14.9154Z" fill="#FF9335"/>
</g>
<mask id="mask1_1_665" style="mask-type:luminance" maskUnits="userSpaceOnUse" x="4" y="16" width="18" height="20">
<path d="M19.8328 35.6175L14.6165 33.7429C13.5841 33.3626 12.4702 33.3626 11.4378 33.7429L6.22154 35.6175C5.62384 35.8349 4.9718 35.373 4.9718 34.721V16.3281H21.1097V34.721C21.0826 35.373 20.4305 35.8349 19.8328 35.6175Z" fill="white"/>
</mask>
<g mask="url(#mask1_1_665)">
<path d="M15.2685 14.9154H10.7586V38.1442H15.2685V14.9154Z" fill="#FFD846"/>
</g>
<path d="M19.8328 35.1013L14.6165 33.2267C13.5841 32.8464 12.4702 32.8464 11.4378 33.2267L6.22154 35.1013C5.62384 35.3187 4.9718 34.8568 4.9718 34.2048V34.721C4.9718 35.373 5.62384 35.8349 6.22154 35.6175L11.4378 33.7429C12.4702 33.3626 13.5841 33.3626 14.6165 33.7429L19.8328 35.6175C20.4305 35.8349 21.0826 35.373 21.0826 34.721V34.2048C21.0826 34.884 20.4305 35.3187 19.8328 35.1013Z" fill="#FFD846"/>
<path d="M21.0826 25.7283H4.94464V27.4943H21.0826V25.7283Z" fill="#FFD846"/>
<path d="M19.8328 26.8151H6.16719C2.77116 26.8151 0 24.0439 0 20.6479V6.16719C0 2.77116 2.77116 0 6.16719 0H19.8328C23.2288 0 26 2.77116 26 6.16719V20.6479C26 24.0439 23.2288 26.8151 19.8328 26.8151Z" fill="url(#paint0_linear_1_665)"/>
<path d="M0.244512 20.9739V6.49321C0.244512 3.09718 3.01567 0.326018 6.4117 0.326018H20.0773C22.0606 0.326018 23.8537 1.27691 24.9948 2.77116C23.8809 1.1139 22.0063 0 19.86 0H6.16719C2.77116 0 0 2.77116 0 6.16719V20.6479C0 22.0334 0.461857 23.3375 1.24974 24.3699C0.624867 23.3919 0.244512 22.2236 0.244512 20.9739Z" fill="#FFD846"/>
<path d="M6.16719 24.8589C3.85789 24.8589 1.95612 22.9843 1.95612 20.6479V6.16719C1.95612 3.85789 3.83072 1.95612 6.16719 1.95612H19.8328C22.1421 1.95612 24.0439 3.83072 24.0439 6.16719V20.6479C24.0439 22.9572 22.1693 24.8589 19.8328 24.8589H6.16719Z" fill="#FFD846"/>
<path d="M6.16723 24.5873C3.99377 24.5873 2.255 22.8214 2.255 20.6751V6.16723C2.255 3.99377 4.02094 2.255 6.16723 2.255H19.8328C22.0063 2.255 23.7451 4.02094 23.7451 6.16723V20.6479C23.7451 22.8214 21.9791 24.5601 19.8328 24.5601H6.16723V24.5873Z" fill="#E87145"/>
<path d="M6.46597 22.3323C5.70526 22.3323 5.05322 21.7074 5.05322 20.9196V6.4389C5.05322 5.67819 5.6781 5.02615 6.46597 5.02615H20.1316C20.8923 5.02615 21.5443 5.65102 21.5443 6.4389V20.9196C21.5443 21.6803 20.9195 22.3323 20.1316 22.3323H6.46597Z" fill="#FFD846"/>
<path d="M6.1672 22.0607C5.40649 22.0607 4.75446 21.4358 4.75446 20.6479V6.16723C4.75446 5.40652 5.37932 4.75449 6.1672 4.75449H19.8328C20.5935 4.75449 21.2456 5.37935 21.2456 6.16723V20.6479C21.2456 21.4086 20.6207 22.0607 19.8328 22.0607H6.1672Z" fill="url(#paint1_linear_1_665)"/>
<path d="M2.68969 21.1913V6.49325C2.68969 4.45563 4.34696 2.79837 6.38458 2.79837H20.2675C21.4086 2.79837 22.4138 3.2874 23.1474 4.04811C22.441 2.96138 21.2456 2.255 19.86 2.255H6.16723C3.99377 2.255 2.255 4.02094 2.255 6.16723V20.6479C2.255 21.6803 2.66253 22.604 3.31456 23.3104C2.90704 22.7127 2.68969 21.9791 2.68969 21.1913Z" fill="#FFA60E"/>
<defs>
<linearGradient id="paint0_linear_1_665" x1="13" y1="0" x2="13" y2="26.8151" gradientUnits="userSpaceOnUse">
<stop stop-color="#FFE899"/>
<stop offset="1" stop-color="#FF9F06"/>
</linearGradient>
<linearGradient id="paint1_linear_1_665" x1="12.1236" y1="4.4637" x2="13.8469" y2="21.9123" gradientUnits="userSpaceOnUse">
<stop stop-color="#FF9136"/>
<stop offset="1" stop-color="#F46E4A"/>
</linearGradient>
</defs>
</svg>
