<svg width="27" height="36" viewBox="0 0 27 36" fill="none" xmlns="http://www.w3.org/2000/svg">
<path d="M21.2765 16.4783V35.0403C21.2765 35.6984 20.6184 36.1371 20.0152 35.9451L14.7509 34.0533C13.7091 33.6694 12.5849 33.6694 11.543 34.0533L6.27875 35.9451C5.67555 36.1645 5.01752 35.6984 5.01752 35.0403V16.4783H21.2765Z" fill="#1C40C1"/>
<mask id="mask0_1_787" style="mask-type:luminance" maskUnits="userSpaceOnUse" x="5" y="16" width="17" height="20">
<path d="M20.0152 35.9451L14.7509 34.0533C13.7091 33.6694 12.5849 33.6694 11.543 34.0533L6.27875 35.9451C5.67555 36.1645 5.01752 35.6984 5.01752 35.0403V16.4783H21.3039V35.0403C21.2765 35.6984 20.6184 36.1645 20.0152 35.9451Z" fill="white"/>
</mask>
<g mask="url(#mask0_1_787)">
<path d="M26.1569 15.0525H18.9185V38.495H26.1569V15.0525Z" fill="#3157DF"/>
<path d="M7.32065 15.0525H0.0822754V38.495H7.32065V15.0525Z" fill="#3157DF"/>
</g>
<mask id="mask1_1_787" style="mask-type:luminance" maskUnits="userSpaceOnUse" x="5" y="16" width="17" height="20">
<path d="M20.0152 35.9451L14.7509 34.0533C13.7091 33.6694 12.5849 33.6694 11.543 34.0533L6.27875 35.9451C5.67555 36.1645 5.01752 35.6984 5.01752 35.0403V16.4783H21.3039V35.0403C21.2765 35.6984 20.6184 36.1645 20.0152 35.9451Z" fill="white"/>
</mask>
<g mask="url(#mask1_1_787)">
<path d="M15.409 15.0525H10.8575V38.495H15.409V15.0525Z" fill="#3157DF"/>
</g>
<path d="M20.0152 35.4242L14.7509 33.5323C13.7091 33.1485 12.5849 33.1485 11.543 33.5323L6.27875 35.4242C5.67555 35.6435 5.01752 35.1774 5.01752 34.5194V35.0403C5.01752 35.6984 5.67555 36.1645 6.27875 35.9451L11.543 34.0533C12.5849 33.6694 13.7091 33.6694 14.7509 34.0533L20.0152 35.9451C20.6184 36.1645 21.2765 35.6984 21.2765 35.0403V34.5194C21.2765 35.2048 20.6184 35.6435 20.0152 35.4242Z" fill="#6FEEFF"/>
<path d="M21.2765 25.965H4.99011V27.7471H21.2765V25.965Z" fill="#6FEDFD"/>
<path d="M20.0152 27.0617H6.22391C2.79665 27.0617 0 24.265 0 20.8378V6.22391C0 2.79665 2.79665 0 6.22391 0H20.0152C23.4425 0 26.2391 2.79665 26.2391 6.22391V20.8378C26.2391 24.265 23.4425 27.0617 20.0152 27.0617Z" fill="url(#paint0_linear_1_787)"/>
<path d="M0.246761 21.1668V6.55293C0.246761 3.12566 3.04341 0.329016 6.47067 0.329016H20.262C22.2635 0.329016 24.0731 1.28865 25.2247 2.79665C24.1005 1.12414 22.2087 0 20.0426 0H6.22391C2.79665 0 0 2.79665 0 6.22391V20.8378C0 22.2361 0.466105 23.5522 1.26123 24.594C0.630614 23.607 0.246761 22.428 0.246761 21.1668Z" fill="#6FEEFF"/>
<path d="M6.22393 25.0876C3.89339 25.0876 1.97412 23.1957 1.97412 20.8378V6.22393C1.97412 3.89339 3.86597 1.97412 6.22393 1.97412H20.0152C22.3458 1.97412 24.265 3.86597 24.265 6.22393V20.8378C24.265 23.1683 22.3732 25.0876 20.0152 25.0876H6.22393Z" fill="#6FEEFF"/>
<path d="M6.2239 24.8134C4.03045 24.8134 2.2757 23.0312 2.2757 20.8652V6.2239C2.2757 4.03046 4.05787 2.2757 6.2239 2.2757H20.0152C22.2087 2.2757 23.9634 4.05787 23.9634 6.2239V20.8378C23.9634 23.0312 22.1812 24.786 20.0152 24.786H6.2239V24.8134Z" fill="url(#paint1_linear_1_787)"/>
<path d="M6.52548 22.5377C5.75777 22.5377 5.09973 21.9071 5.09973 21.1119V6.4981C5.09973 5.73039 5.73035 5.07236 6.52548 5.07236H20.3168C21.0845 5.07236 21.7425 5.70297 21.7425 6.4981V21.1119C21.7425 21.8797 21.1119 22.5377 20.3168 22.5377H6.52548Z" fill="#6FEEFF"/>
<path d="M6.2239 22.2635C5.45619 22.2635 4.79816 21.6329 4.79816 20.8377V6.2239C4.79816 5.45619 5.42877 4.79816 6.2239 4.79816H20.0152C20.7829 4.79816 21.4409 5.42877 21.4409 6.2239V20.8377C21.4409 21.6055 20.8103 22.2635 20.0152 22.2635H6.2239Z" fill="url(#paint2_linear_1_787)"/>
<path d="M2.71438 21.3861V6.55292C2.71438 4.49656 4.38689 2.82406 6.44325 2.82406H20.4539C21.6055 2.82406 22.6199 3.31759 23.3602 4.08529C22.6473 2.98857 21.4409 2.2757 20.0426 2.2757H6.2239C4.03045 2.2757 2.2757 4.05787 2.2757 6.2239V20.8378C2.2757 21.8796 2.68697 22.8119 3.345 23.5247C2.93373 22.9215 2.71438 22.1812 2.71438 21.3861Z" fill="#6FEEFF"/>
<defs>
<linearGradient id="paint0_linear_1_787" x1="11.6629" y1="-0.0595521" x2="14.5662" y2="26.8994" gradientUnits="userSpaceOnUse">
<stop stop-color="#365CE4"/>
<stop offset="1" stop-color="#1135B5"/>
</linearGradient>
<linearGradient id="paint1_linear_1_787" x1="11.9927" y1="2.05024" x2="14.2047" y2="24.4468" gradientUnits="userSpaceOnUse">
<stop stop-color="#1339BA"/>
<stop offset="1" stop-color="#0A2A9A"/>
</linearGradient>
<linearGradient id="paint2_linear_1_787" x1="12.2351" y1="4.5047" x2="13.9742" y2="22.1138" gradientUnits="userSpaceOnUse">
<stop stop-color="#375EE6"/>
<stop offset="1" stop-color="#1036BB"/>
</linearGradient>
</defs>
</svg>
