<svg width="26" height="27" viewBox="0 0 26 27" fill="none" xmlns="http://www.w3.org/2000/svg">
<path d="M19.8328 26.8151H6.16719C2.77116 26.8151 0 24.0439 0 20.6479V6.16719C0 2.77116 2.77116 0 6.16719 0H19.8328C23.2288 0 26 2.77116 26 6.16719V20.6479C26 24.0439 23.2288 26.8151 19.8328 26.8151Z" fill="url(#paint0_linear_1_845)"/>
<path d="M0.244512 20.9739V6.49321C0.244512 3.09718 3.01567 0.326018 6.4117 0.326018H20.0773C22.0606 0.326018 23.8537 1.27691 24.9948 2.77116C23.8809 1.1139 22.0063 0 19.86 0H6.16719C2.77116 0 0 2.77116 0 6.16719V20.6479C0 22.0334 0.461857 23.3375 1.24974 24.3699C0.624867 23.3919 0.244512 22.2236 0.244512 20.9739Z" fill="#94ACE0"/>
<path d="M6.16719 24.8589C3.85789 24.8589 1.95612 22.9843 1.95612 20.6479V6.16719C1.95612 3.85789 3.83072 1.95612 6.16719 1.95612H19.8328C22.1421 1.95612 24.0439 3.83072 24.0439 6.16719V20.6479C24.0439 22.9572 22.1693 24.8589 19.8328 24.8589H6.16719Z" fill="#94ACE0"/>
<path d="M6.16723 24.5873C3.99377 24.5873 2.255 22.8214 2.255 20.6751V6.16723C2.255 3.99377 4.02094 2.255 6.16723 2.255H19.8328C22.0063 2.255 23.7451 4.02094 23.7451 6.16723V20.6479C23.7451 22.8214 21.9791 24.5601 19.8328 24.5601H6.16723V24.5873Z" fill="#5171B6"/>
<path d="M6.46597 22.3323C5.70526 22.3323 5.05322 21.7074 5.05322 20.9196V6.4389C5.05322 5.67819 5.6781 5.02615 6.46597 5.02615H20.1316C20.8923 5.02615 21.5443 5.65102 21.5443 6.4389V20.9196C21.5443 21.6803 20.9195 22.3323 20.1316 22.3323H6.46597Z" fill="#94ACE0"/>
<path d="M6.1672 22.0607C5.40649 22.0607 4.75446 21.4358 4.75446 20.6479V6.16723C4.75446 5.40652 5.37932 4.75449 6.1672 4.75449H19.8328C20.5935 4.75449 21.2456 5.37935 21.2456 6.16723V20.6479C21.2456 21.4086 20.6207 22.0607 19.8328 22.0607H6.1672Z" fill="#718BC3"/>
<path d="M2.68969 21.1913V6.49325C2.68969 4.45563 4.34696 2.79837 6.38458 2.79837H20.2675C21.4086 2.79837 22.4138 3.2874 23.1474 4.04811C22.441 2.96138 21.2456 2.255 19.86 2.255H6.16723C3.99377 2.255 2.255 4.02094 2.255 6.16723V20.6479C2.255 21.6803 2.66253 22.604 3.31456 23.3104C2.90704 22.7127 2.68969 21.9791 2.68969 21.1913Z" fill="#334D84"/>
<defs>
<linearGradient id="paint0_linear_1_845" x1="13" y1="0" x2="13" y2="26.8151" gradientUnits="userSpaceOnUse">
<stop stop-color="#718BC3"/>
<stop offset="1" stop-color="#2F4980"/>
</linearGradient>
</defs>
</svg>
