<svg width="20" height="20" viewBox="0 0 20 20" fill="none" xmlns="http://www.w3.org/2000/svg">
<path opacity="0.4" d="M13.075 1.66663H6.09167C3.05833 1.66663 1.25 3.47496 1.25 6.50829V13.4916C1.25 16.525 3.05833 18.3333 6.09167 18.3333H13.075C16.1083 18.3333 17.9167 16.525 17.9167 13.4916V6.50829C17.9167 3.47496 16.1083 1.66663 13.075 1.66663Z" fill="currentColor"/>
<path d="M14.8417 7.3916C14.8417 7.73327 14.5667 8.0166 14.2167 8.0166H9.84167C9.50001 8.0166 9.21667 7.73327 9.21667 7.3916C9.21667 7.04993 9.50001 6.7666 9.84167 6.7666H14.2167C14.5667 6.7666 14.8417 7.04993 14.8417 7.3916Z" fill="currentColor"/>
<path d="M7.8917 6.58326L6.01669 8.45826C5.89169 8.58326 5.73336 8.64159 5.57503 8.64159C5.4167 8.64159 5.25003 8.58326 5.13336 8.45826L4.50836 7.83326C4.25836 7.59159 4.25836 7.19159 4.50836 6.94993C4.75003 6.70826 5.1417 6.70826 5.3917 6.94993L5.57503 7.13326L7.00836 5.69993C7.25003 5.45826 7.6417 5.45826 7.8917 5.69993C8.13336 5.94159 8.13336 6.34159 7.8917 6.58326Z" fill="currentColor"/>
<path d="M14.8417 13.225C14.8417 13.5666 14.5667 13.85 14.2167 13.85H9.84167C9.50001 13.85 9.21667 13.5666 9.21667 13.225C9.21667 12.8833 9.50001 12.6 9.84167 12.6H14.2167C14.5667 12.6 14.8417 12.8833 14.8417 13.225Z" fill="currentColor"/>
<path d="M7.8917 12.4166L6.01669 14.2916C5.89169 14.4166 5.73336 14.475 5.57503 14.475C5.4167 14.475 5.25003 14.4166 5.13336 14.2916L4.50836 13.6666C4.25836 13.425 4.25836 13.025 4.50836 12.7833C4.75003 12.5416 5.1417 12.5416 5.3917 12.7833L5.57503 12.9666L7.00836 11.5333C7.25003 11.2916 7.6417 11.2916 7.8917 11.5333C8.13336 11.775 8.13336 12.175 7.8917 12.4166Z" fill="currentColor"/>
</svg>
