<svg width="20" height="20" viewBox="0 0 20 20" fill="none" xmlns="http://www.w3.org/2000/svg">
<path opacity="0.5" d="M18.3334 9.99996C18.3334 14.6023 14.6024 18.3333 10 18.3333C5.39765 18.3333 1.66669 14.6023 1.66669 9.99996C1.66669 5.39759 5.39765 1.66663 10 1.66663C14.6024 1.66663 18.3334 5.39759 18.3334 9.99996Z" fill="currentColor"/>
<path d="M14.0058 15.8427C12.8665 16.6253 11.4868 17.0833 10 17.0833C8.5133 17.0833 7.13354 16.6253 5.99419 15.8426C5.49098 15.4969 5.27593 14.8385 5.56851 14.3026C6.17503 13.1919 7.4248 12.5 10 12.5C12.5753 12.5 13.825 13.1919 14.4315 14.3027C14.7241 14.8385 14.509 15.497 14.0058 15.8427Z" fill="currentColor"/>
<path d="M10.0001 10C11.3808 10 12.5001 8.88071 12.5001 7.5C12.5001 6.11929 11.3808 5 10.0001 5C8.61935 5 7.50006 6.11929 7.50006 7.5C7.50006 8.88071 8.61935 10 10.0001 10Z" fill="currentColor"/>
</svg>
