<svg width="17" height="17" viewBox="0 0 17 17" fill="none" xmlns="http://www.w3.org/2000/svg">
<path fill-rule="evenodd" clip-rule="evenodd" d="M3.83333 4.66663C3.3471 4.66663 2.88079 4.85978 2.53697 5.2036C2.19315 5.54741 2 6.01373 2 6.49996V12.5C2 12.9862 2.19315 13.4525 2.53697 13.7963C2.88079 14.1401 3.3471 14.3333 3.83333 14.3333H13.1667C13.6529 14.3333 14.1192 14.1401 14.463 13.7963C14.8068 13.4525 15 12.9862 15 12.5V6.49996C15 6.01373 14.8068 5.54741 14.463 5.2036C14.1192 4.85978 13.6529 4.66663 13.1667 4.66663H3.83333ZM11.5 8.66663C11.279 8.66663 11.067 8.75442 10.9107 8.9107C10.7545 9.06698 10.6667 9.27895 10.6667 9.49996C10.6667 9.72097 10.7545 9.93293 10.9107 10.0892C11.067 10.2455 11.279 10.3333 11.5 10.3333C11.721 10.3333 11.933 10.2455 12.0893 10.0892C12.2455 9.93293 12.3333 9.72097 12.3333 9.49996C12.3333 9.27895 12.2455 9.06698 12.0893 8.9107C11.933 8.75442 11.721 8.66663 11.5 8.66663Z" fill="currentColor"/>
<path d="M11.49 2.54594C11.6874 2.49334 11.8942 2.48679 12.0945 2.52681C12.2949 2.56683 12.4833 2.65234 12.6453 2.77674C12.8074 2.90115 12.9386 3.06111 13.029 3.2443C13.1194 3.42749 13.1665 3.629 13.1667 3.83327H6.5L11.49 2.54594Z" fill="#FFE100"/>
</svg>
